<mxfile host="app.diagrams.net" modified="2020-09-22T08:34:53.772Z" agent="5.0 (Macintosh)" etag="plsjnFF-6XbiXhQ_gzGh" version="13.7.3" type="github">
  <diagram id="uCm0NeoaoiW52E6zrNIX" name="Page-1">
    <mxGraphModel dx="786" dy="456" grid="1" gridSize="10" guides="1" tooltips="1" connect="1" arrows="1" fold="1" page="1" pageScale="1" pageWidth="850" pageHeight="1100" math="0" shadow="0">
      <root>
        <mxCell id="0" />
        <mxCell id="1" parent="0" />
        <mxCell id="cFlkBL_1ttf7k6hPrmO4-1" value="Openshift Environment" style="rounded=1;whiteSpace=wrap;html=1;verticalAlign=top;align=center;strokeColor=#10739e;fillColor=#D3E9F0;" vertex="1" parent="1">
          <mxGeometry x="170" y="60" width="510" height="310" as="geometry" />
        </mxCell>
        <mxCell id="cFlkBL_1ttf7k6hPrmO4-2" value="" style="shape=image;imageAspect=0;aspect=fixed;verticalLabelPosition=bottom;verticalAlign=top;image=data:image/png,iVBORw0KGgoAAAANSUhEUgAAA94AAACyCAYAAAC0sxeXAAAMKWlDQ1BJQ0MgUHJvZmlsZQAASImVlwdYU8kWgOeWVBJaIAJSQm+iCNKl1wgCUgUbIQkklBASgogdWVRwLaiIYEVXRWxrAWSxYVcWwYb9YQFFWRcLNlTeJAF09Xvvfe9839z758yZM+ecO3dyBwC1SI5YnIGqA5ApypFEBfuxJickskhPABnoAAagAlMOVyr2jYwMA1CG7v+UdzcBIr9fs5P7+rn/v4oGjy/lAoBEQk7mSbmZkA8DgDtzxZIcAAg9UG86M0cMmQijBFoSGCBkMzmnKtlVzslKDlPYxET5Q04CgEzjcCSpAKjK42LlclOhH9VlkO1FPKEIciNkL66Aw4P8GfKozMwsyGpWkK2Sv/OT+g+fycM+OZzUYVbmohBygFAqzuDM+j/L8b8lM0M2NIcpbDSBJCRKnrO8bulZoXKmQb4gSg6PgKwJ+bqQp7CXc5dAFhI7aP+BK/WHNQNMAFAajxMQClkfsokoIzxsUO+VIgxiQ4a1R2OEOewY5ViUJ8mKGvSP5vGlgdFDzJEo5pLbFMvSY30HfW4S8NlDPhvyBTHxyjjR1lxhXDhkVcj3pOnRoYM2z/MF/uFDNhJZlDxm+MwxkCIJilLaYGaZ0qG8MHeBkB0+yGE5gpgQ5VhsOpejiE0HchpfOjlsKE4ePyBQmRdWwBfFDsaPlYpz/KIG7beLMyIH7bFGfkawXG8CuUWaGz00tjcHLjZlvjgQ50TGKGPDtdI4EyKVMeA2IAz4gwDAAjLYkkEWSAPClp66HvhL2RMEOEACUgEf2A1qhkbEK3pE8BoN8sFfkPhAOjzOT9HLB7lQ/2VYq7zagRRFb65iRDrogpwJQkEG/C1TjBINzxYHnkCN8KfZuTDWDNjkfT/pWGpDOmIgMYAYQgwiWuN6uBfugYfBqw9sDrgr7jYU1zd7QhehjfCIcIPQQbg9Q1gg+SFyFpgIOmCMQYPZJX+fHW4BvTrhfrgn9A9940xcD9jh4+BMvrg3nNsJar+PVTac8bdaDvqi2FNQygiKD8XqxwhUbVSdhr3IK/V9LZRxJQ9Xy3+458c8/L+rHw/eQ3+0xJZgh7Dz2CnsItaI1QEWdgKrx5qxY3IeXhtPFGtjaLYoRTzp0I/wp/k4g3PKqya1r7Hvtv882Ady+Hk58pfFP0s8SyJMFeSwfOFuzWexRdzRo1gO9g72AMj3fuXW8oap2NMR5qVvuuyTALgVQ2XqNx0H7kFHuwBgvPumM30Nl/1KAI61cmWSXKUOl18I8P9EDb4pusAQ7l1WMCMH4Aw8gA8IBBNABIgBCWA6rLMArlMJmAnmgIWgCJSAlWAtqACbwTawC+wFB0EdaASnwDlwGbSCG+AuXCud4AXoBe9AP4IgJISOMBBdxAgxR2wRB8QV8UICkTAkCklAkpBURITIkDnIIqQEKUUqkK1INfI7chQ5hVxE2pDbyEOkG3mNfEIxlIZqoQaoBToGdUV90VA0Bp2GpqLZaD5aiC5Hy9EqdA9ai55CL6M30A70BdqHAUwFY2LGmB3mivljEVgiloJJsHlYMVaGVWH7sAb4pK9hHVgP9hEn4gychdvB9RqCx+JcPBufhy/DK/BdeC1+Br+GP8R78a8EOkGfYEtwJ7AJkwmphJmEIkIZYQfhCOEsfHc6Ce+IRCKTaEl0ge9eAjGNOJu4jLiRuJ94kthGfEzsI5FIuiRbkicpgsQh5ZCKSOtJe0gnSFdJnaQPZBWyEdmBHEROJIvIBeQy8m7ycfJV8lNyP0WdYk5xp0RQeJRZlBWU7ZQGyhVKJ6WfqkG1pHpSY6hp1IXUcuo+6lnqPeobFRUVExU3lUkqQpUFKuUqB1QuqDxU+UjTpNnQ/GlTaTLactpO2knabdobOp1uQfehJ9Jz6Mvp1fTT9Af0D6oM1dGqbFWe6nzVStVa1auqL9UoauZqvmrT1fLVytQOqV1R61GnqFuo+6tz1OepV6ofVW9X79NgaIzViNDI1FimsVvjosYzTZKmhWagJk+zUHOb5mnNxwyMYcrwZ3AZixjbGWcZnVpELUsttlaaVonWXq0WrV5tTe1x2nHaedqV2se0O5gY04LJZmYwVzAPMm8yP40wGOE7gj9i6Yh9I66OeK8zUsdHh69TrLNf54bOJ12WbqBuuu4q3Trd+3q4no3eJL2Zepv0zur1jNQa6TGSO7J45MGRd/RRfRv9KP3Z+tv0m/X7DAwNgg3EBusNThv0GDINfQzTDNcYHjfsNmIYeRkJjdYYnTB6ztJm+bIyWOWsM6xeY33jEGOZ8VbjFuN+E0uTWJMCk/0m902ppq6mKaZrTJtMe82MzCaazTGrMbtjTjF3NReYrzM/b/7ewtIi3mKxRZ3FM0sdS7ZlvmWN5T0rupW3VbZVldV1a6K1q3W69UbrVhvUxslGYFNpc8UWtXW2FdputG0bRRjlNko0qmpUux3Nztcu167G7uFo5uiw0QWj60a/HGM2JnHMqjHnx3y1d7LPsN9uf3es5tgJYwvGNox97WDjwHWodLjuSHcMcpzvWO/4apztOP64TeNuOTGcJjotdmpy+uLs4ixx3ufc7WLmkuSywaXdVcs10nWZ6wU3gpuf23y3RreP7s7uOe4H3f/2sPNI99jt8Wy85Xj++O3jH3uaeHI8t3p2eLG8kry2eHV4G3tzvKu8H/mY+vB8dvg89bX2TfPd4/vSz95P4nfE772/u/9c/5MBWEBwQHFAS6BmYGxgReCDIJOg1KCaoN5gp+DZwSdDCCGhIatC2tkGbC67mt07wWXC3AlnQmmh0aEVoY/CbMIkYQ0T0YkTJq6eeC/cPFwUXhcBItgRqyPuR1pGZkf+MYk4KXJS5aSuqLFRc6LORzOiZ0Tvjn4X4xezIuZurFWsLLYpTi1ualx13Pv4gPjS+I7JYybPnXw5QS9BmFCfSEqMS9yR2DclcMraKZ1TnaYWTb05zXJa3rSL0/WmZ0w/NkNtBmfGoSRCUnzS7qTPnAhOFacvmZ28IbmX689dx33B8+Gt4XXzPfml/KcpnimlKc9SPVNXp3YLvAVlgh6hv7BC+CotJG1z2vv0iPSd6QMZ8Rn7M8mZSZlHRZqidNGZLMOsvKw2sa24SNyR7Z69NrtXEirZIUWk06T1OVrwI7tZZiX7RfYw1yu3MvfDzLiZh/I08kR5zbNsZi2d9TQ/KP+32fhs7uymOcZzFs55ONd37tZ5yLzkeU3zTecXzu9cELxg10LqwvSFfxbYF5QWvF0Uv6ih0KBwQeHjX4J/qSlSLZIUtS/2WLx5Cb5EuKRlqePS9Uu/FvOKL5XYl5SVfF7GXXbp17G/lv86sDxlecsK5xWbVhJXilbeXOW9alepRml+6ePVE1fXrmGtKV7zdu2MtRfLxpVtXkddJ1vXUR5WXr/ebP3K9Z8rBBU3Kv0q92/Q37B0w/uNvI1XN/ls2rfZYHPJ5k9bhFtubQ3eWltlUVW2jbgtd1vX9rjt539z/a16h96Okh1fdop2duyK2nWm2qW6erf+7hU1aI2spnvP1D2tewP21u+z27d1P3N/yQFwQHbg+e9Jv988GHqw6ZDroX2HzQ9vOMI4UlyL1M6q7a0T1HXUJ9S3HZ1wtKnBo+HIH6P/2Nlo3Fh5TPvYiuPU44XHB07kn+g7KT7Zcyr11OOmGU13T08+ff3MpDMtZ0PPXjgXdO70ed/zJy54Xmi86H7x6CXXS3WXnS/XNjs1H/nT6c8jLc4ttVdcrtS3urU2tI1vO37V++qpawHXzl1nX798I/xG283Ym7fap7Z33OLdenY74/arO7l3+u8uuEe4V3xf/X7ZA/0HVf+y/tf+DueOYw8DHjY/in509zH38Ysn0iefOwu76F1lT42eVj9zeNbYHdTd+nzK884X4hf9PUV/afy14aXVy8N/+/zd3Du5t/OV5NXA62VvdN/sfDvubVNfZN+Dd5nv+t8Xf9D9sOuj68fzn+I/Pe2f+Zn0ufyL9ZeGr6Ff7w1kDgyIORKO4lMAgw1NSQHg9U4A6Anw26EVAOoU5dlMIYjyPKkg8J9YeX5TiDMAO30AiF0AQBj8RtkEmzlkGrzLP8FjfADq6DjcBkWa4uig9EWDJxbCh4GBNwYAkBoA+CIZGOjfODDwZTsM9jYAJ7OVZ0K5yM+gW3Tk1NxOfwl+kH8DoKdxIKADOfoAAAAJcEhZcwAAFiUAABYlAUlSJPAAAAIEaVRYdFhNTDpjb20uYWRvYmUueG1wAAAAAAA8eDp4bXBtZXRhIHhtbG5zOng9ImFkb2JlOm5zOm1ldGEvIiB4OnhtcHRrPSJYTVAgQ29yZSA1LjQuMCI+CiAgIDxyZGY6UkRGIHhtbG5zOnJkZj0iaHR0cDovL3d3dy53My5vcmcvMTk5OS8wMi8yMi1yZGYtc3ludGF4LW5zIyI+CiAgICAgIDxyZGY6RGVzY3JpcHRpb24gcmRmOmFib3V0PSIiCiAgICAgICAgICAgIHhtbG5zOmV4aWY9Imh0dHA6Ly9ucy5hZG9iZS5jb20vZXhpZi8xLjAvIgogICAgICAgICAgICB4bWxuczp0aWZmPSJodHRwOi8vbnMuYWRvYmUuY29tL3RpZmYvMS4wLyI+CiAgICAgICAgIDxleGlmOlBpeGVsWURpbWVuc2lvbj4xNzg8L2V4aWY6UGl4ZWxZRGltZW5zaW9uPgogICAgICAgICA8ZXhpZjpQaXhlbFhEaW1lbnNpb24+OTkwPC9leGlmOlBpeGVsWERpbWVuc2lvbj4KICAgICAgICAgPHRpZmY6T3JpZW50YXRpb24+MTwvdGlmZjpPcmllbnRhdGlvbj4KICAgICAgPC9yZGY6RGVzY3JpcHRpb24+CiAgIDwvcmRmOlJERj4KPC94OnhtcG1ldGE+CqOuc8UAAEAASURBVHgB7F0HYBTV1j5bkwAJhBp6770XqYKgoICAgKI+1Oez9yd2sT177+VXUUQRUUQQKdKR3nuvAQKBEEJJtv/n3M1stvfZnd2co2Fnbr/fzNyZc09TWSwWGzAxAowAI6BQBBwLlDhwnHkdrb2IDVSY662klO9R2WYv7VIH01zOqc3iclJ953M6VqlUoNFoxB8dMzECjEDpRIDWA6vVCmazWawbJeuBCtcJV0zEaXGiI8utUEl933Vdc/DMvU2PAlKCo1epipTBv4xAUiDgeJeLA8eZyzvd/X2OmeIbgNLx/+LnGBzv+GCBobqC6DFznBSnOf1QMVVxvlTFKdtx6DxORyId0BhFgpfa2K5Hqijvmiq1LX3HqFVqHJRLL3wSIQKIKBMjwAgwAgpGgN4L4t3g+oLwOmI/Ly3xQvH20vNRx6U3PJFeSFK/zud0zEy3hAz/MgKMAK0HarUatFqtWBvs6w/hQh/xLqtL8fJmT6N/XXPtWHr5bBYZory3Co5ce33///pswH81zmUEEgkBcZuX3OvOz6G3Y3tx/Fc8r9I7XisY71C4Udr/cuVdXc8kCEWqZ2Ep2/HraxOOOinea3OUdRz4yLC3VTIeqW0UygL9WW1WRxN8EB0EmPGODo7cCiPACMiAgNMrMojWS0p7FHb70HXkF6e713R+CdNL1/Ojt6QGlaWXlbRDLL24HH3wASPACJRKBGgtEMy3ppj5Jpa6eOkQa0zJMiKSndcd93xR1am8K6A+MiiZ1i8f2d7aCKqoa0U+YwQUjYC4/+3/OMbp8axRjnhW7E8A5Tv+MKvkHU8SYGJUQ3xSiCmmPnwwwJRVQiWMcEma65G/7wzUqcHCnm14pEpFpN/iLqS2Hcw3au6EOFvXwfKZCwLMeLvAwSeMACOgBARokRcLfck/fodlf0H6LuLtpSHqSP04VaV0Z3I9s+dI73AqW/JC1ohj57p8zAgwAqUbAVof1BonyTeubNIa421tcUaLNvxcl6OSus7lxLFrQbdsaikYwlLYDpUNrnwwbXIZRiB+CNjvY9e7WXr+xKik5waLiFJ0/1Na8a/jHa8mEzK10zvejVsNdoquQ/FZS2J+fRbADCrjdRReE0UFr81RcfcqUv/EfAtzGWS+maKDADPe0cGRW2EEGIEoIWB/+WFjjgP/Dft9jxW/QP23UJLr8kIuSXYcUb5Uhj5P6eXEkm4HPHzACDACXhCgdcJZ7VwUobUJ1xBpPZGquZ8XL4RSdnFVWn1cyb5cuqd6KeOa5P3MPjSPPrwX5lRGQJkIeHsmXJ4vep8XD10c4Ym49cV7vjhDPLsasXkmMaMls3VnV0tyfB1hc8VMrjd217WWZ3+u+f7OXPtxKokZXkftJV3qX/iqsJiFzwqxbDk1x4ehI6ANvUpsa2jePuDRoeW/DV3S3MtEM3/psSK48ufjjv5610qFxWNrOs7jnf/iyjx4aeU5x3ie75EJE3tUdJzHO7/f1OOwLLvIMZ5FY2pCn9qpjvN458t579AkI2k/3vdWoP7luLeep3u3+E344sqz8PKqfMe98lz3Ch73tnv+890zHeX7Tzvpcu/9fUN16F0rReTTy3fALzmw/LjBUX7ByGrQqzifEq+afsolf96IqtCrpt5R/+oZZ1zyQ723I7k3aBBy1g907eOdL8e9F811M97rWqD+5bx3Ir03431vBeo/3HtPYr5fXXcBXll9Xqwj9M/TXdLh2a7l8WPY/kX+yprz8L81BY78Z7pmwHPdKjgkbS+vznep/2y38iCte7R0DvCy7ol3Ln0x48f1lT+fcFkXF46u4fJOds8PdV3je0++78Vw7z3pZpK7fqBrH+t893tb+85BCQrxa3yknviVmPGUD4645Bc+WFtsmEmSbvd100y8iI3YWPtHi3v75scauLTnnm96tCSf1p0Bv5x0lCdeY+Ho6vbnHptfit/R7vl/35AlnmlyyLY024DfLDmO+r1qpgDli9Fh/WWYP/DXUy7580dWdZxT/qDfTjvOqf68EVVE/4QPfWu9uvaCI595De+8jPt66QDM6UDxjLfTWB2HtHPsj6KZL+34SP1JL0/nc+mYfjnfvrMvYaJ0/KRxSr/RvHekNp1/Q2lf6djJMT6N07PtjhWdk3RZIm/55MhIIvfxUV2dTidlixeq4wQPtJiXkmJnzCndvX29Xg9paWmOKu751J9zmnv/7vmOhooPnOu659F5LPMDjZ3z6XOmhNyvrdLxKRm5/SiW95Z733Tu3L/SsYt0fM5rGM2d1iTndUWrvUTJDqI1zXldcq/vvq65j4/y/a2LhL1zm+716Tya18cxseID57bd8+g8lvlyz53bj+266X5vu99fzt8D7nl0nppaIiTylu/8veI13+l7xVu+VlvyPeP8DFJZulecn1tv+c7j12otLl3Q3OmbRSKdzlVVnPKd56fX2zcPpPKU77wu6XSFUpb4jfa6kGzPhgtYbicq1N93RdutQLxPpR0m24TG8R4K988IMAKMACPACDACjAAjwAgwAowAI8AICAT6/pQNS48VQjASb/+iYwaUEWAEGAFGgBFgBBgBRoARYAQYAUaAEWAEIkJA8RJvmh2pPDAxAowAI8AIMAKMACPACDACjAAjwAgwAkpCgJzQBUPM0QaDEpdhBBgBRoARYAQYAUaAEWAEGAFGgBFgBMJEgBnvMIHjaowAI8AIMAKMACPACDACjAAjwAgwAoxAMAgw4x0MSlyGEWAEGAFGgBFgBBgBRoARYAQYAUaAEQgTAcUz3uTVXPXmvjCnx9UYAUaAEWAEGAFGgBFgBBgBRoARYAQYgegjQF7NiV+leOyBSPGMd6AJcD4jwAgwAowAI8AIMAKMACPACDACjAAjoGQEmPFW8tXhsTECjAAjwAgwAowAI8AIMAKMACPACCQ8AtqEnwFPgBFgBBgBRoARYAQYAUaAEWAEGAFGgBGIMQLtqqaAzWaDCqmB5dkcxzvGF4e7YwQYAUaAEWAEGAFGgBFgBBgBRoARSA4EOI53clxHngUjwAgwAowAI8AIMAKMACPACDACjECCIxBYJp7gE+ThMwKMACPACDACjAAjwAgwAowAI8AIMALxRIAZ73iiz30zAowAI8AIMAKMACPACDACjAAjwAgkJAKbTxtgWXYR5BusAceveMab43gHvIZcgBFgBBgBRoARYAQYAUaAEWAEGAFGIMYIPLwwF/pNPQ5bThsD9qx4xjvgDLgAI8AIMAKMACPACDACjAAjwAgwAowAI6BgBJjxVvDF4aExAowAI8AIMAKMACPACDACjAAjwAgkPgIcxzvxryHPgBFgBBgBRoARYAQYAUaAEWAEGAFGIMYIcBzvGAPO3TECjAAjwAgwAowAI8AIMAKMACPACJQ+BIKN480Sb7w3CgsLYfXq1R53iVarhWbNmkGVKlU88qSE/fv3w7Fjx6RTn79lypSBrl27irJUh9ps1aqVz/Lnzp2DzZs3Q0pKCvTo0cOjHLWxbt068afT6aBt27bQrl07aNq0KWg0Gq/lfY2zevXq0LBhQ6B2vJHNZoM5c+bA9u3bxfirVasmcBk6dKgYn7c6nMYIMAKMACPACDACjAAjwAgwAowAI2BHgBlvxIEY0iuvvNLnPVGnTh0YP348TJw4EdRqV7P4zz77DN59912fdaUMYuB37doFx48fF33VqlULjh49CiqVSiri8vvFF1/AU089BaNGjXJhvPPz82HEiBGwePFil/LSSbdu3eDXX3+FGjVqSEniN9A4MzIy4MUXX4SHH37Ypd7u3bvh5ptvhg0bNrik0wkx7B999BGMHDnSI48TGAFGgBFgBBgBRoARYAQYAUaAEWAE7Agw4+10J9StW1cwu1JSQUEBbNu2DebPnw8vvfSSkC7//PPPkJ6eLhVx/I4ZMwZatmzpOHc/qFy5skgixrhx48awb98+WLlyJVxxxRXuRcX5L7/8In5vvfVWR/7hw4dh8ODBgoHv0KGDYJLbt28vJNwkHSfmevny5UB5M2bMgO7duzvqSgfUnrME/cKFC7Bjxw6YNm0aPPLII1CuXDn497//LYoXFRUJxp82DJ577jkYPXo0VK1aFWgcs2fPhtdeew3GjRsnmHxvfUl98i8jwAgwAowAI8AIMAKMACPACDACyYYAxfHOL7JAmyp6qJDiKqD1mKvFYrEp+Q/e2GujPzlpz549NgTG1rlzZ6/d5OTk2JBBFmVQCu1S5tFHHxXpyCi7pPs7QSZe1HnwwQe9FkM1cpGPzLrNaDQ6yiDTLtL/85//2AwGgyNdOjCbzbaHHnpIlGnSpImNziWSxvnNN99ISS6/CxYsEPUaNGjgSEfJuUhDlXJHmvPBhx9+KPJvueUW52Q+ZgQYAUaAEWAEGAFGgBFgBBgBRiDpEejz4zHBqy46fCkgTx2ALffg00tlAtk0T5kyRUiWSbX6zJkzEeFAqtukYj59+nTwZowvSbvHjh3rsLtesmSJsEMntfcPPvgA9Hq9xxjItvutt94SEvW9e/cCSeeDpf79+0NmZiYcOnQILl++LKpt3bpV/NI4vNGNN94obNVJAs7ECDACjAAjwAgwAowAI8AIMAKMACPgHQFmvL3j4pFKaujkTOzixYuwcOFCj/xQEurXry9UzE+cOAErVqzwqCox3s5q5iipFuWeeOIJSE1N9agjJZCDtP/+97/ilByiBUu4HQUoRRcMPTl0IyIbbiIaD2pFiGPnf0h9/vTp07Bs2TLnZD5mBBgBRoARYAQYAUaAEWAEGAFGgBFwQoBtvJ3ACHTYpk0bYTt94MABj6JHjhwBSULskYkJZNedlpbmyEL1bMF0k2117969HenU9saNG4XXcFR9d6STTTgRjSEQtW7dWhQ5ePBgoKIinxhuchBHkm5yMid5RR8yZIiQaJO9OG0WXH/99SK/Z8+eUKlSpaDa5kKMACPACDACjAAjwAgwAowAI8AIJCMCocTxVjzjbflvQw9P4vG6aOSJnIiYbHeSpMzu6dL5+vXroWPHjtKpcFSGNt5C3RxtpR1zlKTdpI7uTBITjTbYzslej4lJJvIWPuzzzz+HefPmOeqR2jw5eaOQarQxQKrqEtF8ybHcAw88IDYJaJz0R0Re2mmMt99+u0MyLtVL2F+U+oPNWjJ8FSqE+PA6X1KIjxgBRiAsBOhZo2cO8I+eNcAID/y8hQVlVCo51j+6JnQteP2LCq7cCCPACDACjEBSI/B+/ypeTYe9TVrxjLe3QccrTQr95c2rOXn3liTN3sZXs2ZNl+QKFSrAddddJxjvpUuXQr9+/UQ+Md7UjzvjLcXYln5dGnM7ycvLEynkgdydSJpOHtAlor4o9BjFAX/11VehefPmUpb4pdjg5Ck9Ozsb0AGbYMBJPZ7CjD377LPwwgsvCC2Aa6+91qWekk+sJ/aC5cAG8WfLzwHbxTz8O+d7yGXKg6pcJqgrZIGmAXqRb9gJ1LVb+C7POYwAI2BHwFQIloMbwHpwHViObgVbwWmwXcL1qeiiT4RUGdXweasIqir1QNO4u/hTlc/yWZ4zQkPAenIPWPevweuyDqznjov1Dy6e9d1ImQrieqgrVAd1g064/nXB9S+w5pXvBjmHEWAEGAFGgBEonQgw4x3CdZekzu4xsqmJ4cOHi9BbITQHpG5ODtZI3ZwYb0nNvE+fPkA25c7UqFEjEQOcylSpUsU5y+NYcnZGddzpyy+/hNtuu809OeA5Sb+pnlSXxkHhxL7++mu46aab4NSpUy6q9AEbjHEBYrbNm+eLP1tBbmi9Xz4PNvyznD4Mlr2r7XXLVgBdmwGgbT8I1HVahdYel2YEkhwBy46FYN70J1h2LwUwG0Oara3gFDLopwBO7ALLlr9EXXWN5visDQFNuyGgSreHZgyp0VJe2HpiN1g2/4nr3192bEPB43I+rn/5uP4dxPXvHzBR3bKZoG1ztbgm6jptQ2mNyzICjAAjwAgwAqUWAWa8Q7j0kpdwSTodQlWvRa+55hogB2UYtgs+/vhj4cSMCjo7VZMqYngwIMk4SZ8pFrg/+v3330W2Pwm8v/qUR87W7rvvPqhYsSK88sorHsUbNmwo4ob/9ddfQE7itmzZEnBcHo3EIMGybREYl04Ba/bO6PZ2KR9Mq6aLP3VWQ9D1HgfaDtdEtw9uLTwELMgaWMziz0a/VjpG54Do9R80WlBpdOIX6FeNaUzRQaCwAEz/TMFn4ieAS340SMLozYpMuBH/4M+3QYMMn/7KO0GV1SSMlkpXFcu2+WBa+i2uf9ujO3G8vma8zvSnymqM699tuP5dF90+uDVGgBFgBBgBRiABEAgljrfiGW/N23ZHZrYJjeMKPdlFk5SXnKS1b98+KmMhtfExY8bAJ598AosXLxaMN9lZjxo1yqN9sqX+6quv4J133oH777/fp3Q5NzcXfvjhByhXrhzcfffdHu0Em0Aq6OS9nZy6EQMueTh3rk/jJ8dwU6dOdU5WxLFl/zowzHgTbGezZR+PNecAGKa9BMZ5n0PK8MdB07yn7H1yByUI0KaKZe9aNB1YL8wHSnKCOEotK0wHNI06gbZZT1BlskpzEKh5FDHN/xhMy74NWbrt0VAQCZatc6EQ/zRNe4H++udBhSYgTK4IWPevxvXvJVz/jrlmyHBmy9kHxmlPg2neh6Af/gyuf31l6IWbZAQYAUaAEWAElInAwwtzYemxQlg0pib0qe078hSNnjzaMAVA4PvvvxcevanYm2++GaB0aNmkbk70+uuvC2/mFLIsIyPDoxGScg8bNkyodI8YMQIkO27nghTaa9CgQcJRGjluI2l6JEQq7yT5prHRrzudPHlSOF8jBpxswRVBxkL84HwDiv7vwZgw3c5ztp0/DUXfPQ6Gn18EKLzgnMXHUUbAdu4kGBd8BZffugEKP74DjPO/CJ3ppjEVXQLLjqVgnPkOXH7jeij87C4wr0GNEUxnCowA2QsXvjccTIu+iAnT7Twiy57lom/zut+ck0v3Ma5/RmS4i/7vzpgw3c5g287ngOG7B3D9ewrXvwLnLD6WEwHS8DFeFpjb0FafroPt3AnhT0FonhThu8hUZNf8kXMc3DYjwAh4ReCi2QwHL1+ANedyYX3+GThayN8XXoEqJYmKl3jH8jqQRJvslSUiT99k1y2FCSNnYmTL7Y2IOSUG3Rep1WqQVMCdy3Tt2hVIjVyKDe5NzVwqTx7FycnZ3LlzBaNL4b5InVyv18O6deuA4nZTPkmoyelZpPTGG28AqZJTvzt37hSMPzlfI6Z/27Zt8NFHH0F+fr7YjPAXWzzScQRb33pkKxT9NBHIYVo8ybxpLlj2rYXUca+Aun50tCPiOR8l9W09sQdMSyaDeetCWYZF95CB/uZ8BLqu14Ou141oU8yh87yBbVr0JZjmf+QtK3Zphktg/HUikEp1yuj/AZQrvdfKemQzGH6agOvfydjh76Uny6bZULhvFaSMexvXv05eSnBSJAhYD6Jmz/5VuNG4Fuiah0Romy8cFjbsipoJfdBpXul9XkLCjQszAkEgcNpQBAtyj8PSszmwreAcnCi6DLmYVmhFUzcvlK7VQhV9GtRITYPOFapA38pZcGXlGlAO05mSFwGVxWLxFGUqaL79ph4XXr6X3FhLtlHt3bsXmjZt6tE+McukYk2q5RRSa+DAgR5lHnvsMRED2yPDLYFiY5tx18sbkQ31c889B+SF/Pjx46D189AZjUZ46qmnhH01bQw4Ezl9e+mll+COO+5wThbH0ji/+eYbh4M0j0JeEih02oQJE4QDOPdswuzxxx/32p97WbnPSc3btPg7ubsJuX1dz7Ggv/ahkOtxBVcEbHnHwTD7Q7DsXOaaEYMzXd9b0aZ4PAC+IJnQ/wNubBmmPAbWY1uVBQcyFSmjX0UV9NJn6kFq3qbFXynreuBotD1vwfVvguLGlWgDsp06AKb1M4SzQYoMEC1SN+oOuo7XgaY92+dHC1N/7eQYCuGMsQgumE1AUtCL+EvHl9AXSQr6G0nX6sRfWfRFQscVdHqoV6acvyY5L84I0PX8+fghmJJ9AFahRDsadG212jCuVgMYXr0upLIfmmhAKnsbpGq+6VQRUFixtlX0fvtTPONNoycGmMkVAdwwAdowIKdmFN6MYoRnZcln60gbAnv27BExzMnhWn2MFU7SdinEmuvoYntWNOUZlHgtim2nIfSmadodUm97N4QaXNQZAePcz1DK7VubxLmsbMfoxT51xBOgadlXti4SoWFbXjYUfXYr2C5E5wNDjjnrR70E2k7Xy9G0ItukTRCS+CuVaCMk5eb3AHT+7d6UOv54jst6YI1wjkfe5GUllHzrrhgHuu5jAVLTZe2qNDVehJLO304cgT9PHYNFZ04CMd6hUhoyXr0qVYOrq9ZCZqwhVE3h5yhUDOUov/MCanvu3wbfHdsvR/OizQpaPdxTvxk80rAlSsb5ussGdJQatlqtQbXEjHdQMHEhpSJQ9O2jYNmzSqnDc4xLXa8tpI1/Bz9qyjrS+CAAAhjCrfD7J8B6eEuAgrHL1vUbD/pBd8WuQwX1ZDtzBG3gb0WP5XkKGpX3oZCUlaStyU6G7x9ELZDFip8mxf1OvQP9AKSy9C6Yi0VSbcO0ZzDe+upgikevTFoGpAx7WoTti16jpa+lTefPwocHd8IvJw4LaXY0ERiAqsi3120MN9ZsEM1mua0gETiFmyf3bFkFM3KOBFkjOsWeaNQaXm/BpjvRQVOeVpjxlgdXblVBCBimThRxuRU0JL9DoXjfafcqTx3U76DjlGk9uR9oUyXkmOsxGK/QYED7fdCXiUFvyujCduEMFH0wCsh5U6KQHhkIbfcbE2W4IY/TMPUJjM09J+R68apA8b5T7/0hXt0nTL9mVCk3zkYnrkUX4zZmTbPekIKaI6XZZ0I44M9H+97X922FxWdywqkeUp0GZdLh6SZt4I46HFYxJOAiKDz52AF4aPtqOGcyRtBK+FWblsuAKR36QscK7JshfBTlq5k0jPey7CKhztynNttXyne7JF7LpsWTMHwXSlASjLTtBkLK2BcTbNSxHa7lwAbhHR7QQ7NSSVWlLqTd/h6GH6uu1CFGb1zoEbnwk3Fgy9kbvTZj1FLKTRT3e1CMeotdN2TPTXbdiUaadoNx/Xsj0YYdm/FezgfDL8+CZdfS2PQXqJcy5SFlzOul0mdCIGjc83dfPA/3b10FC1GdPNZEzNh7rbrCNaiKziQPAmeNBrht03KYhSYDSqAXmraHiU3bKWEoPIZiBEKJ4614VXOlxPHmu0s5CFD4p6LJTypnQCGORD/kQeEtO8RqpaK4efN8IE2GhCBUm01D23113dYJMdxwB5ko6sy+5pd63xQgVedkIcvORWD4PnEdNuoGPwa63uOT5XJEZR7Wg+ugCG31RfivqLQYvUa03UZjfPbnotdgkrX0xM71wtY33tO6Dh1yfdu+F1TSp8R7KEnV/8IzJ+DmDcvCss+XE4hOKPWe3vlKqJvG5jty4hxs231/yg46jjcz3sGiyuUUgQDFb7783s32uKWKGFF4g0h7cBKoazQNr3KS1krIDRVUN0+753NQV2+clFfFvHIKGP94PaHnpqpYC9IexljfSeCV3lZwCgrfHprw61+ybYZE8oBYtvwlwsBF0obcddV120Hqvz4CKFNB7q4Spv19lwpg5NpFsO3COcWMuSo64PqxUx/oj3bgTJEjMDPnKAxfuzDshvQqNQyqWhP6YJiwhmXT0UN5SZiw02grvhVDjpHjPdKYCIfoei/ocTW0ycgMpzrXiSICzHhHEUxuSlkIFH5wC5D9r6wkhW/wEXsxGn2TinKZh9HeMaX02An7w82ybw0Uff2wvyLKzUOP52XQdl9VKblU/awn9wi7buUCH/zItJ1HgH5k4pt4FH08FqzZO4KfuEJLqspnQdqjv+P6V7qdTZqWfgOmv9DjewKQKqMapN49CWgjq7TT37knYNjav+EyRpdRIr2IqsjPsypyRJeGHOONXh+e48r25SvC3fWawU01G7rE5M7F0GMG/K7Mwu8+rUrlGB/F/P7yyB74EUOS5YVoP56BYefmdR8E3TKrONrjg9gjkFSMdyzieMf+EnGP4SBgWoR23fNlsutGZltVIQs0TbqCunxVAKsZrKcOgeXgRnQoJc+OtrbLMEgZkbgq8+FcQ291yIHa5XdviqszIW/jCiVNXa0BpD0yJZQqii9b+PZ1YDtzWPHjDHaAqXd/D+p67YMtrrhyiWrX7QtIbZeRoB/xgq/spE+3bF8Ahh8eTah5qirVgbQHfi7V3ukpXvPNG5cp/rqNrVkffurYV/HjVOIAF+DGysBV80IeWq3UMvAaeh6/GcO+WWw2oJBji9HunyTny87mgBnTJKqJZftXqQ6ja9SHHhWrQSbGbCdb8kd3rIEpxw6CBUrKSnV8/VLc93V9roPm5VgjxRdGcqdzHG+5Eeb2Y46ALe8EXH5zpDz9ItOtzmoEup5jQNO4C6jS0WMk7krazh4D85aFYNo0F4+zZek77f5vQF2ruSxtJ0qjhR/fjlK8XYkyXJ/j1HUfBfphaKeZBGRa8n9gmvtBwJmQ9EtTr0PAcsEWoHjFcnlOV1WpD2mP/RHsUBRVjuKnF755jaLGFI3BpN4zGX0ktItGUwnVhvXIZij67JaEGrM0WHX9TpB617fSaan6nXRsHzrZWpEwcx5YpYaQhibMgBUw0F0X86Hz0lkhh4EjKfea3teBDtXLD12+AHdtWQnEwAdL/2veAR5q0BKIiSa78mFrFoY0BmL6N/UdBpU53newkEe9XNJ4NSdk1Gp11AHiBhMLgaJvHgHLXnlimpKKcMrV94Cm9ZUeoNgunAXT8h/BtPJXALPBIz/SBHVWQ7Q/RZXzUkqmJd+Dce5n8s2ezAZIpctilq8Pp5ZT7/wINA0TO9am7XwOFL41BO93o9PMvB+mPjAVrHnH0eY4cg/0qrJ2OzXDpPu8dxaFVP2IiaDtMioKLcW2CcO394Jlz/LYdhqD3lRZje329zHoSzFdoPfyy29fC3D5vGKGFOpAdH3vAN3VCWoaFOpki8v/evIwjFoXnupxmF1GpdrI6nWFE66oNJbkjZDEuf2SmXCs6FJIMx1VvR780rmfqHPjhiUw9fihkOpLhdPwe2VFryHQoXwlNGMwQ+Yc9LFis0rZAX9J3XxVL1xbmOKCQLCMtzYuo+NOGYEQELDmHJCN6aZhqNHeWtOyj9cRkfRb07grWA5tBuuxnV7LRJIo5rb7H9A0uyKSZhKyru3SOTAu/EbWsROu6sq1wbz1b4wJfkZoMsjZoWHmO1Dm0Z/k7EL2tk3LJgXFdNNAVGija5r7vtAOiXRgJEnTD7gn0mb81jct/r+EY7xtOfuSkummCyXmhuGzNM29r79+L2aCZhaRenkCM90Eu2nJ16BphGZZjbon6FUIbdirzp1OSKabZvnrySPwJHpefx1VoJn8I3DD+kVhMd1TO/UFEzLIrRfPgD0XC3x2MjSrNtRAyfRFsxmWYqx3dwa/EDUtuy+bDS82aw9PNm4DB64aBS0XzYACs8lnm84Zq8/lwoSd6+DNFp2dk/lYYQgonvHmON4Ku2PiMBxZmTOShqJqD5Bk1AepK9YAdbWGsjDe1KVx6Q+QVgoZb+Nfn+IXXPS1CJwvozozC3RXjAZN/XZgxg0Oyy5SZc6TjQG3nT4M5nV/gLYzep5ORCosAPOa6Yk48qDGbDt3HCw7F4OmhV06EVSlOBcyLvpCnhHgmqdpdZXdtCaIHmwXzthjTGNc92gSORgrLYw3bWpR6LBkoKKpT0EZMt1Iy0iG6ficwwVkekYnoKTbeUJv7N8GA1DtnP6YvCPw9v7taI+d4z3TR2rr9EwRwq0QnexdtWquV6abpNgftekGw7LqwO8nj8KWgjzoVKEyPNawFZxBZ2t3bF4BRwtLJOwk4X5u90Z0wmYVsbqndeoHQ1YvCNrm+y2cx8AqNfla+7hmciWHEsdb8Yw3OVcjsk1IznA9ct0EydIuOd6ybFsU3+mQd3N0tiYXWUmajlJ9UjsvLURh4czrZ8dkuqa1f4Bl/zrQoTM7suW37FkJ1hP7gMwIIAQ1rmAHa1yAUtUEZbxNa+UxqQgWu1iUM6/+OWEYb1vBabBsnScPLGiLqEVJs6bt1UJjweZHqqKu3gQo7JVlP5r7RJnxth5GB5Y5e0GV1USeeSqkVbLTN815RyGjicIwLp4F459vg37US1FoTLlN3LZpOWQXXVbuAIMc2U0blsLOK69nG2AveO3BcF6Po6Q4VPqy3RWQptHA2PVLgKTN7lQePY7/1qU/kNfy2vOnQRF9SxYTGdDeWKsB7Ok/EroumyVCi0l55ITt5T2b4SrcKKFwZP+p1xQ+O7xbyg74ews6/9uL7aZj/0yxQYCcqy09VgiLxmD4uNqpfjtVPOPtd/ScmfQImLfJbFNFXibJltWCqjwa74uUNfcoWI/vkRVr89aFoC9FjLcRbbsjIrxWKvI+H8D/A9kN29BWynpkKxiObgNt24FATtCspw6i+vkisJ4+ZLdPRiZEONXTpdhtwnG32Xb+tP2+CHGgtFlkRod82vZXh1gz/sVlY/LiPzXHCCQHbqpy6ERR4USer2UjXPMMv06EMk16QNF3D/r1YF/m9W1gnP2WbCrSZtxc0CU5422Y/rxslzJeDZvXz8BNxhFJ6yBvBqppk6p2MhCFsnpsx1r4rn3vZJhOVOdAmyuh0l11m4oQXlOPH4TpJw97rf54o9ZwDKXZD29f45FvxZQp2QfhZFEhzO02CJov+hXOO21+kldzkqKfGDRWmAn8cuIQSsiD0xDMwRjhJDV/v1VXj345If4I0KYLEyOgWATM2xbKPjYreiw3r5vlVf1YSNz3rQXrmaOyjsO8RcYPbFlHHkbjl/JRnRlj+EZA6ip1MBTbE6Dve6vfP01jJ1sn3GQhW28KSUd2/forx4O6Sl37KHSpoG3TH/T9/iXaS7l+AqirYp5TrM1QhmtC84FEI1LDth7fkWjDDmu8lq1zw6oX60rmrfNj3WVc+jNvSYzrES44VtQUSBYVc3cMjLNed09KinOyw71366qkmIs0ie+PHYCVebihzORA4AcMD7fKi7TaUcDHwUMNWwCpmN+zxfs9Ui0lFcbXaQzjAzD1izDc2OaCs0Ky7d4VxYn//NAeoFjdd9Vt5p7t9/yDgztFODO/hTgzLggoXuLdu1YqfvuiHS5T6UMAGTTr4a2yz5skm2RnbSu6KKSUqrIYCxHvOevJ/UJyad61Qnav2BSujP7Iw3qyk2nDnMimSPb4qeUADJfBMOcjv23pul6PUvHiZa5MBtrqNwAt2dPj9TWtn2WXeFMLxstgWjsToFg1K2XY46AqUx7L4d6krUQ9zG9nTplkOkAh0hIpVBzZPpcWsuxaBtoe45Q9XfR+TWrYpYFsZ4/i+ncU1786STld45JvlDMv0hbCdc6GH/XRiNRhzd6BGkWbk07q/cb+rUCSw2SjuzHM1dZ+w5NtWmHP59W9W0Ku269yloiZTeHl8n1E/+hVMQvW5Xuqn3vr7BGUiL/QtD1MO3HYI/vJXevhznpN4N91m8D/9oU21vcP7oAv2+L3DpPsCIxvlSFUzOtmBGarA5eQfbj+O1g8tiaHE/MPUdLmWg6HtsiEDQRKQsnmmJhvYrY1TbuDKqMyGP/+WtgCE1MWC6L5aksD443OxyInvGaklnXZtwdR0QeGuVKVrwbq2i0w3nRbZLzrC7MBwz/T0Mu520uRQmJJYbEsaH5AZggREKmb6xMoRrvl4PoIZptYVS37Vip+wJZSwnRLF8JyaAOuf8nHeFtP7Abrfu9SMWnusv8is012+rpBD2K4Q1Q/LXYmSgyz8feX8b23N6IhmJZ+Cym3fhBRG0qqTJLMD5BpCUQaUEH11DQ4gTbgpDqcCLTtwjkRX5rsh0s7LT97CnahfXeo9FTjtqLKt0f3+axK3st3FOT7zHfOIE/orTIynZNcjv/GeOCja9SHrhWqwJogmXlq4Ksje+Htll2ExNylQT6JOgLjW2dAsOHEWNU86vBzg9FCIGaMtzTgwgtgJrXyk+h4K+8ESpuQ8Y8R001DsBzC/pKcrKcOgS03tjZzGmR+tW2vAtCngXEZxmRf9asn0y0D7ubNC2RoVb4mLYdKD+NNKFoVPl/LoRhIu7Up6F8QWQbaaJKINMww3f6nt6eiUyBVBvpUkJGshzfJ2Hr8mjZvmBm/zrFnCtNHTHHqvT9gaMweDqabBqWu2w7Tp0R8bS07F6EGUoln5rhOOAqdf3FkN1xAVfNAVC01FTb0GQYV9fi8JBC9jV7OmQA+PrQzKBiyUtLgteYdYW3v6+D01Tc6PIav8aOiTo7UyuuK188AvaTiRpjB4nvrZlbOMdHCkKzQNSK/RuabSVkIKF7irSy4eDSxRMByNPCOcyzHI3df1uzgXgJyj0PO9i0HN8jZvEfb1tNHwFJpvwgjJvqOUIrt0YGfBIpTTpsMKsmO3E/ZuGfRBpOMsYVJ2qZp0NnvNEnNWFWewr+N81uOMs2b5wDhGwlZT+4RTEkkbchZ13pU/o04/VX3AlzKQ42fE46pEHOWMvp/4tyKXtWLPhkn1MA1bQbK6gPAciw5mQEzeoOPC6GZjG7APaDtOEw8Vz79VaB/C7rm5g2R+d0woyNAbcfkUGH+6OCuoC6ZBtRQFW150TVnUOWVUmg+SlDJ6VfttLJKGVLMx3EJna56U+12HkjL9ArwcrMOcC3G39aR2RnSOZMRNuSfEb8U8ssXbcOwYaQeHgxRub9OZ/ssuiD3uMhr7Ucq7qvy5Oz98EjDlr6yOT0OCCie8eY43nG4KxTSpdwOzRQyTccwyC442YlCp8WSKIwY/ckRNiyYeQjzgQRgvG0yS6tSxn8C5l1L7REEfAGXXhmlrCghyKzpq4RIV2G+HqV4hh8e8VsuUKb1lLKfN9nXP10aqOu0AdPyyXaoMAKABnFVpaWj/4NiJqzognh2DL88B7q+twOk4Ie6TPeK7dT+QJcs4fJJlRsw7FbMCZ8j3YB7Qdf7XyjWDvyZRxtjkZJlW3Iw3uuRqTp4Ge97mYnYOLUf/0VW3CT2zdZFPrjvj+2HZ5rYVaYjby3xWvgRnar5owfqNxfexMtotHDaUASzTh2Frw7vhbWo6h2MEdo6vI+obrfMKl5DjTn3/UTj1jB4lW8NuVPYP0nQh2fVhRMDx4qxzEYpOKmgFzqFKHNuUzredD4PdlzIB9pEYJIPgUnbCuDweRPc2jId6pX3v+b6z5VvjEG3zHG8g4YquQqSZBKdq0VEqL6jKlcxpCZU6IBLlYofl3p06pdRJaS6NgpJhurqEGAh9Nso1S22v/NbLkEzLTFwlucCjQxxul3aD3BiOYIhzBIhprdMzJQEjwptTE3zP0apuu9nmlRi1QMqgGn2m1I1r7+aFv2EFM9rZgiJ1tzDIZSOcVGx/uXJ2qm6ditQo5aBJOlUV20AKWNfc+nTlp8DphWTgaTv6lotQZVZA2Nu73MpE9UTK6r3BsEoRrVPGRsTcc9lbN9X0/prHgVt9zFBY2mj91aEFK+5Rjhsj+pTAjBkHhXCSCCmu1tmVahXBp2E+qCN58/C7jDsj30055H8I4ayKs2M9/QThz0woQQdbob80fUquBrjZ5Ot/6eHdsOjO9aAP+m21FAKhjetgt+OFIc7D0N//Qvjaf/RdQD0+WcO7L/k+Yyl4bcexfmmsHVke++PfscyjcuWFxoW/8FQZvSXZzIAOcsjJtwfA07tM+PtD93I8yZtLxBxvPvUTkt8xjtyOLiFxEQgmD1F/zNTV28M+oH/Ed7K/ZcsySVvryoMNaVCyY5+yAMlGYGOitWQKIyU9fjuQKV954sPT/TanYyETLCHQ7NknKfTnMimPRHIhjFeSxvZUMVauRT5+hdobupqjcC8faGjmBWdm11+FiXeFaqDBmN7E9kwcgCgSiaRZe9K0NRqBWZZGW/aeFS8PEDgEcw/5DAu1qQf8rgr011YgI4oDajJUN6uUeJlQNajKJmPlNC7s/X4TlDXbBFpS3Gt70/lN1oDS0GG6z6UqGahY7ajhRc9miXJ5ivobVtOxnvnxXzhtZ3sl0sjLUPHau5EzvKmd77SwXR3Wz4Lthb4Z4ipDWKgKWb3k43bgIU2TZFImeHt/dvhPgxJt73f9fDCnk3wMZowEFOuxry2GRXhr+4DYe6p4/ADhnlb3OMa6FGxqqg7F9XOn961QYQDk94EN25AjbFiqqRLgd+79oeuKE2f1qmfGGO3ZbN8Mt/Lz+ZgzdKr3SDhppTf5HnDKQVRHkd0EChevCJpTFUuU4SEMi3/KfhmMEyVFmM/qypk2WN7B1mTJOva9oNAhCILso7XYlGYt9d2lZBIXshLGVlPJwbjHS9V/HjeDrYLcVABjueE3frWdb0BDDNfdUvFU7T5VVW0O/FRYYhFC31B4tcfqU3r+twG5vUzPOtEK8WPzWS0uohlO7F2GEc21trOI+ybF7jRaVr+PZjmvGOfMr7b0u77EVSV69m5AgkIZMwtx7ZLZxH9Wo9sSmjG+wK+o8jDdKzoQ4y1PDPnqEd3nfuFpm3n0UCQCQtRVXlcrYZBlk6eYsRMk+q2O33UphsMzaojkhv8/UtQ4eTqo9YCMdbEZFeZ+yNKxu3t0ubKQw1awDfte0G9Bb8IO+vsQWOA0sknADHXXZbOgvV9hgJ5QKd43zm00YlUC7UuF15xtThu/PevHmM9i5LuXivmQFlUZZ+LzHvPitXgxKCx0HnZH14l6942GUTj/E9cEFA8481xvONyXyRNpzZUVxc2vsHOCGM3qzOzcEdSHVI9VYVqKCXCMC2RUpxVoyMdvt/6Xl50fssnQya9SGkzxY8tnyKmmcwbPr4A9qP27qtKzNJlvh6kMk5kO2v3lkvHKpSA6zHclDPZHdgh441kOboVdMVMuS0v27lY9I6Taf0zFUYlTnaw4KrKVRIbI8IOHytRiDDTkq9LquMmihGZ8JSb3wNA0w9BeJ8Z530IQLb8USCl+00INMW9MWS6A40lFvnEkJVGxnsTqvG70zWoWn5PvWZCvTxYppu0BZZcMRjGoTT6d7cNFDNqCr22b6uw797XfxTUnD8Vnti5XoT2uox5xDSvQ6b7wW2rYTJKvC1OluN7LxVA3fnTYCLG9l7eczB0Xz5bSMrdx0wO4gasnAuPNmwFr6LX9VW9roX6yORfLNZSksrTJsMR1Kyom+bbtEEqy7/hIRBKHG8yNVE0URzvJTfad98VPVAeHCMQDQSskmJRNBpTWBsyMxMKmy0PhxFQLAL6QQ+BNWcvmn44qVuina/lwBqXP+EcrJgZJudntjNHQNd9rHzzSqY1IsbmGxQuTIV2+tImn+08qpeiirkz2ShyAZkzFRPFszdvnCWdRvwru0PAiEfov4GTxRJH/6WSJ3c3qpuXRjrk5jyP7Lo/adNdQHH31n+CknRTYXKKRk7q3JluCVP6mlt05iS8vHczhiPrJJILUKuC1M0fatASlp7JgUlY35npluqSY72JqJ5+Bm3FaUPAF5HtOTH4DyADXxnty/cNGIVO3TzNFY8X2qXpvtrh9MgQoDjeE3tUDGjfTb0oXuIdGRRcO2ERULqEUC5gyfgnaUm5mwrquq1BU6OpcKpH8KurNQRtu4EY57a13VkeqnaZNs5BydClMK4OzVvh1xV335kUhICc6x9KrdX12oNx7vtC+klO1vyRjkKOIZkWfArmrfNQlfl6fE7QLtSIEt1oEzonShaymWLkNwHvFf3gxxzmARJ+mkbdQF29qTARcKQ1642mBHabXtuFM2Ba/H94HaP3QW4766k2LfWdCL+nDDLc01GYOL09fL1B6O0S7pu1tEn4pUvhznjfVqcJ1C+TDivyTiEjfUAqFvD32mq1od2SmQHLvYlx0y8MvgUm7FwHJKUmm/C76jUFkqwHov9s/kfYgn90aJffop9i/hVoIz62ZgN4olEbwbQ7VzhRFL3n3LldPg4dAf7aCh0zrpEgCFizd4Nx0behjRa9O5t3LEPnamVCqmfDnWPTPz+DLf90SPU8Chc7afNI5wRZEdA27wk2jM8pbLJRLcu0El+I+OFsQ6+m9Fmj6zocKDSY9cReWccRr8ZVpfC+U1H4slJImiZXCFVjK9r1qgc+YI/xHAQO6vodwDjjZVRnvh3UVRuCNTs6dsEuXcu54eDSUQxOZDStIcm2rvNIAIrCgR/xmmZ9PCeEGywpI18Ey6H1YEM7brrfte2udZQzzn4DrIc3OM6jcWBTsvlGEBM8ZzQGUSq2RciR1qstOgrbYG895xQVwvSTh2B9vqf6tLfyzmk5Ct1ocB6jHMcnETNnurV2I3H6wu5Nzsl+j+m6UExvYqSDoQJ0Pkgezy+hynfjchkB44BLbR7DzX4NrotUN9ePFg1JyO9FR25ko/5803bw0/GDLs75KCQakzIQUDzjzXG8lXGjxH4UvvZ3gxhJWgakoEdyVXolUdh2MQ+Mf38NtnMn/VZWVa4D+n7/whBkmcIu13p8F5jWzUJm2kkd00sLmlZ9Qduyj3DkRk6qzLv+Acv2JWC3j/RSwV9SMjNACp6bCm37rQc3gWXPahdVTOlS6SgkGH7IJi1R/OzSRhi3WrEk47OirtkczJtmC2koeTAPljR12wvmzZq9A9Q1msnEeHuqSAY7PsWVk0ltXj/sGfRaHpy6PzHoWlI/d6OiD0ahDfget9QonMqhBRGFYQXbhNFmd4wVbPlYlMNYIFBgMoFe7X1s5BDOFIFTQpLyVytlns2d8aqo0wtJ8R4M3bYQ1cKDpQpYrzBIppvaJPVyiSi+t/MYpHRfv0UoACCb8FxfBYrTaSPgXxuXw7TO/YTt/nO7NzpqkF05k3wIcBxv+bDllmOFAO7wqfDDOFTmVdOgA+j63oKSy8Ng3rlMjFZTsymkjnkBz5eCadmPnjNAhooco+k6X4cfI/tQ4r0EVKSOiWrGKcP+C6a1M8Gya4VnvbR0rDMUNHVbAcVrtp7JxpAt6aItSjMumoQ2kSXOizwb8JKSzAxQBHspXpCKfhLZPpJNpDdJVUROn5Q+cYQyRA0PB/gkbavbDmzFzroc6e4H6MxJU78jgOGie47jXJWFqv7YXqxIXb5arLoKrx90lgUXQ5di+e0M11VN835g+O4+0PUaHxLeqsp1QY0esU2rp4Ku5y1gXjvdb1dhZSbT+hfRmuGJHnmaJ8dotOkRLtnwfjLOQkm3HEx3uINSUD2zAn2sGJGp3lxwFuNLezfDOI9MeT4yXOES1S11jLfTs3lTsVf3f/JC01Y8gHbidf3EYXe/HuW0WnR6Zo/skl14Ceg8WKqoT4HDXsLOeas//eRhoM2YRxq2BGfGu9DJt4O3epwWGQIcxzsy/Li2QhBQVa4VEuNNIb0objdJqS0HUL2uOFyQ9dguZMSPgP6qO8GCUk1rtqutjDqrIeg6XCMYbCor1OVUGNERy2nbDQJtm/5CWm7NcbX90ba9CtU0q4Jp1W9gIRVkVFMnb7HWE3vQAdENoG07ED9Of3eMIxCsqozYhBAJNA7Z8hHTUkkJoD5LcevDIdOySaDpgNoATrv5XttBm2Btj3FetQkc5ZHpNq2c4jiV+4DiWCuZ1JVqgzXKjLcKVcSFTS9+mGm7jAx5+toeN4Jx9pvCBwJEeWNAlVE15PEoukI0N5FS0yHlpreElkK4c7blHgLDrxNdbL7DbStZ65XIJJUzwwytDh5Dr9VpPvxwkL3y+wdM6LU6HP8jAKVdEtqvsl3rZ2tBXsgXfXVeLvwL1dS/Qwdp/qhThUqwAU0ByFEa0XG0t6YNlaqoPn7aj/o4le1XOQs2nj9Dh0ETMfYt0itAh/KVsK5985b6Y1IGAsFvuShjvDyKUoSAuloD/EjYFvSMKY62NT8HJdvLAdCmTSJyIiPSSELd60Yw/PS8lAVQtgKQfa+14AxY9q5Biae0c2zGUDvZYN4wG5noUSgl6gXWU4eQwbAvXupq9UFTvRHGP92FNnRoFySp8eCv9eR+Ye+tv+Y+sGKe5eI5R72Sjj2PaL5JTT4+HEKeM10D3P21FQRSvAq55ahXUGXaX+pRbzjaDerRpwGp0ofoEMq8ehrQXyAq8+wSMEx5FL/ylONFV5XVJNCw45pPGwPCq3gUR5GCasqWg+vssZbDMJ3QoHMu2y/Pic1FbbvBYF4xOWqjU/pGSMgT9SGhDLkdrJB626egruXfCZ7PdlHSRZ7LjX+8Jo9DPJ8dJ15GSgTO/ajuwCo14YVm7X1OfObJo/Dp4V1wyRy82u9ZZNZu37RC2Pl6a5hCRUXisbocMvaljUhtW6KKaKtNRKrmodKr+7bAH10HwILc43DCzW5caqtaSiosxZBjLRb9JiUJZ3gURmwphgpr7pTuKOB08EOHPjBm/WKnlMCHU9G++6VmHaBR2XQH450azY3AwEPgEn4QKLn7/BSKZxbH8Y4n+vHtW1O3DUqMZwY9CG2rfsKWGzBeqQchQ2HZtxZ03Ua4ZKnKVAB17RZgXPCVE9NdUsR2/rSw8VZVqmmPfVocnkVdvTHY0DaK7MAdTHdJNaHqbkMJuCq9IsYOwBcbesUORJr67QIVSex8WvhJpTnSkC0oXbXmHgHjwm8Uj4e6cm3Fj1EaoLpOG7AeWCudJv2vpm5bRc+RPI9DFNW5Kc6zGtX9Tcu+Bf01j4Q3d2Qmta0G4IbjNhFWzLxqKq5/dvXJ8BosqUXO25KKvIT0CWt+qC1iPX0QNadyUdOgEaiq1A+6GfIybt48x+693C20WNCNhFIQJfOJTCkRMCdq9DtOKsHtUcroizafz0NbbTWEIpuuhG1+3b4nSrzx/emFDl++iBLvHTA/94SX3MBJ6aWQ8SYb62jQ1oJzMBEdsm3oMwzuRO/jf5465uJhnmKDU5iyx3as9dBIWIz25P+gF/W/ug0E8lxOTtScqXHZDPihY2/48sge9LZ+2jkr4DHFZyeqnorfW8VUNgTVdqkO/waPQChxvKNz9wU/tpBLUhxvdQS7kCF3yBUUg4CmXpuQxqJC6TVJtyWptEdlZH7JA6wzqfBlpkJ1H58O1JDJs6HEQEWqtM73ITGQFiPY3BZLR9sklSXpIfUXpIp10jPeCI4atQSsh7c6YAr7gOywvW2whN2gPBVpvolCmnodSg3jrcqoBqpKdRR9aeh6RJM0bQYBXMoD69lj6EASNwTDJG37a8Hw4+No532zUDm3ntgdZkuu1YQPANekhD5Tae2StIgngQ7LjKgiDmj/riqfBboeN4H2CjTbCIKMM19FTa5/gigZnSLqQL4eotONbK1EgwmNtkcPknjfu2UV+Io0ShLvo5ddmbZQAMoqZY7VCJvMYil3KDj5Kktq5ltwQ4UYbPojhpqoU4XKkIuexO/YvALTcjyq4xeiYLgnYCzwDX2Hwl+nsmE5Mszkwbx/lRrQA0ODPbNrQ0A1do+GMcHgxU9NRjL5z/A26TinURxva5Dq/IpnvOOMJXcfRwRUlWoBqeoG8kYuDdFyfA9oGnYS0lAPKTQ5a8PQKza3XX8bSl+t6O1c07gLqpX/KTVV8osSHhXFrCWm20myYzuXAyqM+6zGMVq8eUtHhpskTDay6XGqV9Kw2xEy8upkl3jjlMn5XaSMtz0sDtrX40aLZd86Yc/vhqZiTjUNOipmLIEGomncHUwLPw9ULCnyNc37KH4e5ExLlVkT17/jkY8VfU+oa7ZA/xe/4VrXHU1sMsNuU3hCTy0HtrxsUGOs6Kgw3uhjQF2/U9hjUmTFKH7ci/mhGZQNN06C9WhOdaznwpOChosnOeBLZKqcEqXNkiiCQBLyNuUzfTpXI+do5GDtbBBade7Daoixq0sjOTsZcnmOAABAAElEQVRFyyvGrU5aubCh2Iz24VessH8/kj03EcVIL0BfGv6ImO/X920Tf4Or1oK+aM9N/v0+Q3OE0SGqlzv3Q9oX7lTTSfrtnsfnsUWAGe/Y4s29hYgA2W2bFk0KqhY5MtNf+xCYtywACiHmQmjfrR/6KKrdLXBJJgdslj2r0IHaADBvXehh46pp0B5V0VuChezGJTtubMFydJtg1tV1MC97J0pfXXectR0Goyr6JfFxGgzjTf2XBqKNkWCvpwceuDmhv/I20La+Em0W/xIbJrorRgsv9sY5HwuP9B514pxA90+ikBolrCRRs5333J1PlDkEO04tSX8TgEi6bFr0RcQjVaEHdw2GESuc8RJuTuIm4z9Twm+TtHmQGTAt/j/QomM9M2n1eJGwhNKBtvXAUIonRlkdbthGm0jzyngZjb6DYJjIz0mMw3upE53xRu03pRGpr7/XqqsIJ+VtbGSbTJLRg+hkLVRqhOrMpZHqOXkjJwn1iOp1oXl6+ahAEU48dep4zuls8ReNQXTJrCyacbb9r5lWonYejT64jfARUDzjzXG8w7+4yVBT13FI0Iya5ch2wSCn3PSyCBtm2W1XsVPXawv6/rcLO2vyeO5CKEWwoOqzulZzSB37AhhXTEWHaJuFoylti57o+XeYcPBm3rPSpRox2ubtS9Bm/Hr0lo6e1NfMANvpwwAYD1rXZShom/XEtn7CEGPHXOv5ONN1uNpHTnIlaxqiBBg3QaAwxI8ElB4Rw62u0QQuv3+L/eMToTFvmIMf/1cLb/ZFP7/gsQEST/Q0TboBkLZEApG2w3XIUH2VQCMOfaiq9CqgRuYzEUjbcWhUGG919aao7WMCkqKTA0rr+hkRT9+GkiKyQyeNIFuEZh/EwCcjkUM0a/b26E0NN3MNUx6DlDu+DNimeediISEPWDCKBchPRCJT7bTwojvIOWfyUF17/s9eZJj2Xi24GROuZ/KOxdJZOcevxLablCvZcPgj5yh81LobXFm5RshD7VMpC236/ZvtrD5ndwJ7Ej2Zh+t5PtSBjSsOkXbY6TurHn13McmGAMfxlg1abjjWCJC6OaknWw5uDNw1qpEbV/4CWlT91ve7FeDK8SiJQekM2nGTNNu8Y6mLt3OpQXKgZvoH67XqAylX34PJqKaDqum2ywVg3jQfBAPvtIBJ9SgsmWmFERm/ayB1xJNYB9XR0VEJxRA3LvsBVaA3BOVUTYUOuNT1E0cyKs0/3F+hXYAbFaGQKr0S2pSOhcIv73Uw3aI+bpyYty9FM3o96Af8G4xzQ1CVpriWEUrq/M2BNgQSjbRdRiU9463tNDxhLgvZoasbdAYreiKPhNS1WgrnkSkjXoikGY+6NmTiIR2lKxEw3iI+eIMkUzMvRoocxkXMeOPGRsq4d9CDPL5T9q3Ev1VgRM0FXf+7hDmTNWc/qHFDBVD930EoFbcewvePI0qHI0fWA03dxH6P1UV143LoeOuik3abrIAF0TjF2J7bfZBP52oUTuzd/TtgHnrWDpWurFI91CpJUZ7CbEl0FDc2KORW24yK0Do9E7ZdOCdl+f2d3KE33FzM4Pot6JRJ9uDjNy2HN1p0ggcbtIBgPY3nYsix53dvhM8P73FqzfdhA/RmTrb/W8/b59ISQ4uFEjfcd8uc4wsBKY53r5opUK+8f5m2/1xfPXA6IxBDBHR9bg6O8aYxXcoXTLbl6HZh0y2YYWSgrchc+/w4xAXKhrZwIv43hRSjDxhyqnbpHIasOuvK6DnPG223rSf3gWkJhitDxhBITQ2lSqLehTw8NjiX9nlM6tOliUi6bw6V8RZSclSdxGvpQfjRT7HXdT1G2j3PexTwnmDZtgi1HbbIw3xjqCZty77eO1ZwqgqdI2naXg2WLXMVPMrIhkZOwRKJdH1uB0OEjLdp+fe4SThZnmlHwHTTgHRX/keecSmgVXKQZ0bswyZcR+j6W3YtQdOa43a/IRjb3bz2V4yosRPNoNqAZcciSLn5HVDXaevoxrxmOm4az3acx+JAldVYaHzFoi85++iDdrZ/oqOrWBCFtargxekVOdiSiJyrkddrX87VCi3oXA3Da4ZD/cOQ8obTj9LqkPf6zuj8bF0+OuNFmnb8kIh5/UbLTjB4tas5orexU2z10TXqe8vym0Yxv+efPg4TGrX2W849swp+W77RojNMPnYALgXYFOqC8yLncR8f2gnG4vC3vVEyzxQbBKzIT5CTNX9OwZnxjs214F4iQEDTtDt6z8WY3qcOBtcK2rWR2rdNenmRXVwgojIo1baSZDuUesS0oyd14U2d6gXTl9NYVBlVhMTcKSnpD9UYJk6d1RCsOQeCnytpLpB3eNIqKH6ZOCpTGv7ZcKeatBCCJRtu0shFZIIA0XauJNdg3drV9bkj+ow3fuhom/dFd6uuvhDcug7qVF27FW6whPfq0nbC61LWv2pgUIOIYSFN055ATI0tZ1/4vSoofrrzJFQZVYWduHNaMh1rmlyBWlDosCvITVj3uavQCZ419zD6IVkOKaNewrCXnwAg401roDV7h/ijOuYNM0FfzHhbdi8D4/yPg3Pq6d5hBOfa1ldFUFs5VUdWrxcW401fGVZ8/5vc309OU7NgnvSJYMbjG2s1gO7ovdqdKLY0lSWiMFCja9bDMGT4/vNCpzGs6aycY5Bnws3+EIjsmkszXYWewyXG++NDu+CxRq1Q3bw6dMusApJ6uC98SFWdnN6FQ03KlQ+nGhCzT6YQu/3EG0/De+TPbuh4Fnv47uh+Rz8Dq4auRu+ozAchIWBF73gW3Awj8sV8h/f1EtIwIiv8fI9M5INKdv8ia41rJyoC+mvug6JJj4U2fOkNF1qtkJlnR/Nh9KcffJ+jemk60F15G4YkejboKROTTB7pKea6FbUZnEmVmYWhoWqhKcES757pnQvH6FjX68YY9RT9btQ1mkVd6m2c+z6om/WKzmDx44Ice4VDiSpdpbjbhm/RzCLJKOx44omCA2m+tBmIziBnhTViW/5JXO+2QOrN76IfkenIYZsgZewb6EB0DkrBlzraJAm4fuhTYEav9cZ5H6KJU6EjL1YH2vbXxaorWfsZVaMe3I4hoEIlYrqPodryzJNHfVbdhGGnSAWY7LJJvblnxWrgLZzXsrM5DmdpJP0mdXNfMcapX195PgeCGaGqSftrKxHzbkI18Vf3bRVDJynyhB3r4Nv2vWAOxtWugzb1SjI3CAZf4pLub9AcKqN0/GeU4G/A+4uINCqGZ5XuTRYBhMz/UBzvnjV0UCdd42C8qUtvzLfiGe+JPSp6HbjMGHLzCkNA06yHsIO2HtqksJGFPxx19cagbZcY3pXDn6X3mto2/dEe+1P0+h5cuBtivE1ov6/vfRMYF34LNtJMwA8YFaqgaxp1FqHFjMt+9N5ZsKkY0kjEN/amyoW7zT6927i1r+08FEiTIZFJf/UjUBhFdXNiDID+4ki6/vcI52JxHELYXWua9hLhtqyH1ofdhtIqksM3DXptT3bSdhwWNuMNai1o214DRtpowvVO1/tf2NYfws7bBTeUjhp/exHM21BNlryex5jU9Tsm7LPlDhXF8r4Bme9fThx2z/J7Tmq9S5Bhpr9g6IODO4H+AtEZVDW/eeOyQMVCyq+EEvXrS7nEm+yeyTEabYYQTUL769E168M1GNYre9AY4dDugtnsFdfswsvw1C7Xtbh1ekUor8PvhABEGgoUAi4cog0bX9Q9syq8ieroVOauLf84io2tVd9xzAfyIUBxvA2GFFymUasF/5Ok3tSjO/OtwkzfV1K+MYbUsvugQ6rMhZMGAVI1L3xvXNLMJ+2+r4UEN2kmFOJELCihLpr8VPC1UGVT27offoheJUKJAcZgJ2m37Xwu2q9ORXv83ODbciupv+pO4W2dwst5qLJjWYrzbpzzCdpV7nar6XaKHzRlnpyBGwGZbhmJd2pCddVohLJSwszJm3fahL+UMJSwx2A7tR/XP1SVTxJKvW+KsFFOkun4nUbh+yPRVGCv3zI+MzEGuwhJWa6SfW1C3yNKo5R/fQya5n2UNqywx0MqyF2WBdZSqJ1aFo4OHA0j1i6Cc2HE0Q57gD4qUkgxCiGFBnA+StiTJzZtBy80be+3TGnI/PLIHmRSSyLWkKr2/gGjoAbGvD6FDHKLRb+hCn94THIs8euHfgnmoQM+4ssb/v0LZKMHdYm29RsOrdBpHJP8CBgMBmHfTT3ZijdJNOjcmf6c+VhmvOW/FtxDFBEw/TMNjLPei2KL8WlKP/AudCo0Pj6dK6jXwk/+DdZjO4IfEdpyk4dzVaWaIoyRNe+kcIwXqfdeVWX0Ho3e5cGLoxsxOHSkZzmAnvUDSJOS7boWfXgDWE8E2GwI/urFrWSyMHnmlVPA+MfrccMxWh3rBt6P699d0WpO8e1YNv8JhqlPKn6c4QyQvNKn/Te2jtzCGWeodXqu+BP+yUOnrH6oKqr1zuo2AEgCSirf8aYp2QdgHjrvKkTtCH+Ud804dMCl91ek1ORVm/sTnEav4RKRNsDq3tcCxTg/bSiCCTvXAXkjVyq9jzHe766H2kP4bXTDukXwO4ZHk+iaqjWF6rx0zr/yIuDMeFNPvphvxTPeL608J2y8J16RWA5x5L28pbt1svW27C7ZpUw0NMi5WNo9XyTasGUZbzJpMaiq1IMyD02yO1OSBa3YN2rLywaS1gXacIj9yILvUTfgXtANoDCByUGGSffh+hdd1dNYIqOu2w5S75HJw3osJxJiX4VvDQHb2ZKP4hCrK7Z4yk1vgabN1YodX7gDW3TmJPRfOddvdS0yOy1QZVkpdBK1wM6S1M2PxPsJ9Kj9OoazYrIj8BraeT+9a4MLHHq8rm+36gz31muODK0Kdl7Ih2+O7sO/vajZEH8JeDo63Lu/fgu4vU5jsUFwBL3a34rmCMvOnnKZx7IrBkOvStVc0vhEHgQojvfBcwa4qWkZqJuhdnTijflWPOOtefuAmIBtQmPHRPiglCOAL5fCz+/CUF7K3YX0dYVUFWtCmfu/ToqwK77mGGq6adV0MM58J9RqyiqPkvK0Byah9/3ks6eyHlgLRV/doSy8gxwNqb+SGmxSEXqGL/r8Vlz/wlRdjiMYQuX//p9w/VMOsxIrOCw7F4Ph+wdj1V1M+lHXbg2p90XoWyMmIw2vkzHrF8O0EG29w+spNrVqoQr13v6jfMYEj80olNXLZfTpUm/BL0Cxst1pWFYdeKZJWxF6jPLMqNWwGZ2Wbcg/i1LyQjh06SJkBGHX7d5uuOd10Kt5e4xB3g+9rxORU7jvURpPMb7JF4AzXVutNszqOsA5iY9lRKDvT9mw9FghzBtRFXrVdNUmcWe+mfGW8UJw0zIicPk8XP70TrCdOSZjJ9FtWlUuE9Lu/wZUFbKi23AStFY0+UmMR7s0YWeSMupp0Ha6LmHHH2jg5EHZ8N39gYopKp9COaXc/rmixhS1wWB4sMJPb8b170jUmpS9IbRRTkOmW1XB/tEoe38K7KDoi9sgmRzkpT74C1AUhGSlk0WF0HTRdPDlZCvR5j0bGbEhyJAxuSLwLUqz/Xmy74Xe5x9q2ELE+q5bphygwZtoILvoEtRCO/9YUh76EiCGf9GZE/Dq3q2Qb/Yugd/Xf6SQhsdybKW5L3+MN+HizHwz412a75QEnzvFzi784j78+EwA9b20DEi761MRvzrBYZdn+BgqrPCrB8B6ZJs87cvYqq7PzUDh7pKdLDsWgmHywwkxTU2z3pAyHmMeJzHZLuRC0Zd3gC33kPJnKda/SSIeufIHK98IhenGeyPiEu4r2rPS9roV9EMej3azimvv15OHYdS6xYobV6gD+k/dpvBF2x6hVis15Tst/cMRgivQpDug1JnieGtRDZ2k4HITedonZn9tfm5Qqu6PNWwFb7fsLPewuH0nBJwZ7961UkSOxGxLxaRzxTPeL67MEzbeL1yBHj2ZGAF3BDDMVOGX94L1lHI/PsnDNdl0q8h5F5NvBBLQhEDbfhCkjHnB95ySLIdsi8nGWMmkadEPUm7FWMalgdDDdeGXt4HtlN0kS5FTLlsR17/vcf2rq8jhxXpQFNPbOO3pWHcb1f7U1ZtA6kO/RrVNJTc2ftNyRTvYCoRdY3QUthW9W6ei124m7wgcQo/wrRf/LtS3vZdIjNS2GZmwue/wxBhsEo2SbLwPnCuCm5uVRRtv+3MmMdrO06Q0xTPeNGBnN+zOE+BjRkAgUFgAhd9NAOvhLYoDRFUFPb7e9g7GOK2puLEpckDoNbxo0uNgOYgexBVO2i5DIWXEUwofZfSHZ92/Cop+eBSg6GL0G4+wRW33saAf9kyErSRYdVz/itB22HrI1UGQEmahqlIfUlHzQFWJNx2dr4fh56fBsmmWc1LiHKeUhbSHpidN3O5ggCdb2kGr5gX0ch5MW7EuQ57Xl/ccAk3KZcS664Tr78fsgzBuY+KavJXBsFU7+o2AeqgOzxR7BIxGoyOcmKN3VIiguN7OxIy3Mxp8nNAImJZMBuPcTxUzB90VY0B/XWKo5ioGtOKBGKa9BOaNyo27rB/yIOh63ag02GI2HjLzoPBI1gNrYtan347KlEfNg9dB07Sn32LJnGla+g2Y/lJOqEXtFeNw/XsymSGPaG5FaKNvPaq8zeJAk0r991egbtQtULGkzCfme37uiYSZW010pras52BoUCY9YcYc74E+vH0NfHBwZ7yHEVb/M7pcCcOzWLMoLPCiUMlUzHi7stnYcLE5gpTOjHcUwOYmlIMAeTo3zHwLpd9b4zYoVdV6kHr9BFDXbx+3MSRDx4qM2Z5SBlLH/Q80TUrnh6f7fWVeix7p574PgM4O40XaTtejjT1ucKFKc2kn8nRunPk/XP/ipzGiqtoAUoY/B+oGHLLI7/1Imlof3gC2c4nDyOkGPwa63uP9TivZM+/YvEKEllL6PJuihHte90FQN42ln6Feq4G4wbIggTZYaH7PN2kHLzbjb85Qr3U0y5tMJiHx9qZi7ugnEVTNOY6343LxQQgIWLYtAsOfH4It3zWuYQhNhF60bAVIGXQ3aLsMC70u1/CKgPXQZiic/AQydgVe82OZqKpcx242UKlWLLtVfl9FF8D492dgXjE5pmNV12sP+qFPoVfl5jHtNxE6s2ybD8Y/38L1Lyd2w0VfFvpBD+L6Nyp2fSZ4T8R0F30xHq/TScXPRHsFOpG8DtdiJnh13xZ4Zlf8NrcCXYKeFavC7G5XQXkMc8kUOgJkWtDvn79gXf6Z0CvHocbI6nVheucr49AzdykhQDbeh/KNMK4ZxvFOt8fxliTcUhnxmwiMN8fxdrlkfBIiAqalP4Bx8Xfy2qPqUoTasb7vrQD6tBBHyMUDIoAO9AxzkbFb90fAorIU0KWCvt+tKOm5CUBr91YpSz8J3qjt3HEw/vU+WLbOlXUmqsr1hIRb07K/rP0kQ+OmZZPAtOhLXP8uyDcdfD506OFa1/ffvP6FgbKt4BR6p/83Ruc4HEbt2FTRDbgXdAPuiU1nCdLL7zlHYPzG5XDebFLUiP+LHq3fYo/WEV+Ti2a7Xf/Kc6cjbkvOBm6oUQ+mdeonZxfcdhAISF7N54+sBr68mkvNKF7VnBlv6VLxb9gIoLTUtH4WmDfNA+vJfWE3415RhZJPXcfBoO08FFTp7HXfHZ9on9O1M87/Eiy7VkS7aZ/tabsOB/2AO/D6VvZZhjNcEbCe2IWbJL+BefMcAFSnjRZpmvYCbftrQdNucLSaLB3toBmAaf0MdOY1G9e/PVGbs6pSHdB2HIrr3wh8PqpErd1S2dClPOEzwbJvlbKmjxuN+uHPAJlzMHkikGMohDHrF8OyszHUrPMchkjJSkmDHzr2hv6Va/gowcmhIkCS72tXL4AlZ2OoORTCIDlEXAhgyVzUO+NNnXrKvZnxlvlicPPKQsCWewQsR7biB+gBDEF2EKw5B8B2MS/gICkkmDqrIair1bf/1m4B6uqNA9bjAtFHgELHmZZ8B+ZtiwHMxqh3oCqXKTZTyDkeHTOFj4D1wFogRtyasw+fN3zmcvYGdc0o9JS6WiN81hqjKnkz0NRHe2F0oMYUGQIU89tyZLP9euTsBxteD9vFs4EbRft5cS3ENcHrUrs1rn9NA9fjEiEhYF75IxjnvBPUMxJSw2EUVtdqCSk3vV2qvJeHAZOoMvnYAXhi5zo4iYx4POjRhi3hhabtgeI9M0Ufgdf3bYWndiknakQFNCH4uE03GFerYfQnyy2GhYA3xltqyN3mW/GMN8fxli4d/8qGQOEFOxNecAZsqNYMeA6pZZHpwo/NjMqC2YY0DsUhG/7hNmwsBPOOpej9fC5YDm2K7GMVr6+2WXfQdrgGNI27hjsirhcEArazx8Calw3kGR1Q0mfDzRMVMnb0vKnKVwN1zRZBtMJFooYAaiVYTyETXpCL6985sOG5KrWc/Xqgpoe6Gm4w8qZH1OAO1JANnw3j7LfAsnNRoKLy5JepAPqBD4C222h52k/SVkk6+gYyaOQRuyBG6uc31mwArzTvwF7LY3BPbcg/C7dvXg5bC87FoDffXVxXrTZ81rYHkMd6JuUgsPm0Ac5eMkHryloor1e5DCzhGG8aPcfxdrmGfMIIMAJeELAc2ICxjDeDBVXShSbD2WwvpTAJd4vVVeshQ9EAmbymoGnYkbUXvCMVUqrJbIUVO3KhYY1yUKdKWTCYrLByZy50bVYZyqRoRFv7T1yAY7mXoXvzypCqt6et3XMWLhWZoUvTSlA2VQt7jxfA8TOF0Kx2BlSvmAYb9+fBeXyhSaTRqKB3q6rSKf/6QYCwJZzb1K8gSq3ZfQbqVC0rcKWEsxcMsPVgvgNrSjudXwQ7jpyHqhVSoWXd8iBdV71ODVe0qAIHT16EI6cvUVEHdWxcETLKsLTNAUgUDihUn+GP18CGmiKxIvJYrut/NwDG6mYKD4HLyIB/fXQvvLt/BxwuvBheI35qldNo4SaUdD7VuA3Ha/aDk1xZdG2fQen3KUORXF14bbdZufJCys2mBF7hUUQieTUnJtsePcxJxdye4FA6V7zEm9BkxlsR9xQPghFgBBgBRoARYARiiIB5w0wwzfsINRLksyMmvwn6qx8BVYWsGM4s+btakXcKvj+2H/7IORoRo1YWme3+VarDLbUawSh0psUUXwQuoEbDG/u2wbsHtkOh1SLrYMh2n8wI7qrHpj2yAh2FxksYbyem26ldiSFnxtsJFD5kBBgBRoARYAQYAUZAaQhYdi5Gh4V/ogr6EjSrMUQ8PIq3Ts4Kte2GgCqTHXJFDGiABnZfPA+Lck9iiKpc2H7hHOwoyPfJtDVH6WarjExoX74S9KmUBT0wPBiT8hA4UXQZyP77h+wDcM4UXX8zDcukw7/qNIJH0Us9bbwwKR8BifGWRiox2tK5+MVExTPeHMfb5ZLxCSPACDACjAAjwAiUYgTIOz05xrM7CMVfdF7oMxY4hrgUjgolZ4VZjUCFdvscqSH+N1CeyQC5qLJ8xmgQjtGqpqQCSTiZEg+BOaeyYX7ucdhyPg+2oR34Wby2oVCdtLLQGjdb2mVUgqHVa0OXChwpIhT84l324YW5sPlUEbzVJxPaVtHbh4OCb1Q89xia4hlvDifmcc04gRFgBBgBRoARYAQYARcESB3ddhGdP6HjSYrIQE4L2TGoC0R8wgjEBAGKA34an8PTuLFSZPGujp6h0wFttlTFzTG9Wh2TcXEn8iAgeTVfMCrLEcdb9OSF+Wb9BXmuAbfKCDACjAAjwAgwAoxA2AhYrTY4U2CAcmk64aBQOq+UkQIatd1z7sVCM1w2mEGkZVQDFf5dwLRCTEvX6IDkp0Xo6LDgklE42iMneOcuGoXTPGlgKpUKqpRPkU75lxFgBCJEoJxWC+W06exxPkIcE746LtMq/M/Zszkz3gl/VRN3AocOHYI///wTjhw5ApcuXYKsrCzo27cv9OrVC+hDQA4y4y7kxx9/DMOHD4d69erJ0QW3yQgoDoGffvoJTp0qcc6kxY+CWrVqQcuWLaFx48SIR//+++/DkCFDEma8vm4CC0o/Zs2aBdu3b4fjx49DuXLloFGjRjBy5EioXLmyr2oRp69YsQKOHTsGN954Y8RtcQOxQUCNzDV5l5fI/ZzSy6XhBz7+OVM6ntOfRKnokT7VqZ3McsWqkFIB/mUEGAFGgBGQDQHiaYTSOdp4ayZOnPiCbD1FqeG+dcoA/TElDwL//PMPfPDBB5CRkSGY7TZt2kB+fj7MmzcPzp49C+3bt4/KZInRvvPOO6F+/fpQrVo1oI/eBQsWCIajUqVKUemDG2EElI7A9OnTxfNFDB4xevQS2LVrl2AAKWpEs2bNlD4F+Pbbb6FVq1ZQo0biOoK6fPkyvPnmm7Bx40bo1q0b9OnTB8qWLQs7d+6EOXPmQKdOnSA9PT0q12LHjh3w1FNPwdVXXw200bJnzx44ffo0dOzYMSrtcyOMQCIg8NVXX8Hy5cvFxn6FCvawes7j/uGHH2DRokWQmZkZlY0v+ub48MMPffbn3Hewx7RpRt9MrVu3DrZKWOVofaDvo927dwN9H9HaFEui77M//vgD6H1Fm8VLly4FEtCQkKRMGTsPkJ2dDd988w106NABNBp7SMpoj5E2qT/99FOxVtLa6U5//fWXEBrRta5Tp457NixZsgR+//13IVBq0KCBRz4nJB8C7aqlwA2Ny6B9tw5Std4Fh5RK316ed5TC8JjYoyKHE1PYNYl0OOfPn4dJkyZBz549Yfz48Q7pdu/evWH27Nnwyy+/CKl3tCRxtDharVYxbB3a1LzwwguRToHrB0CApXoBAIpDdt26dT2knaRxMm3aNCFxJek3k7wIzJw5E44ePQovv/yy+DCn3rp06QLXXnstTJgwASZPnix+ozEKUm2jtU9Scbvqqqui0Sy34YZAQUEB/Pbbb3DgwAHIzc0VzFvbtm3huuuug9TUEmm1W7WIT6dOnQo1a9YU78qIG0viBrZt2wb0zVGxYkXBwDlPNS8vTzCalEYbYdEget5IiEAejol+/fVXsbH23HPPhd18YWEhXLwY/ZjgzgMijJ5++mnHxhwK5YRwhL6ZYkG0KfnOO+8AMdYDBw4Uf4cPH4YNGzbAM888I77bqlevDhcuXIBNmzYJIYpc4yoqKgLauJS+G937oXHRGGijgr5j3Yneq5TnbaPHvWxpP3/11VfF98fo0aMTGop2VVPwfauxv29xDfB0qVYyPcUz3iVD5aNkQYB2VIlGjRrlYLqluZF0xmg0OhY8eomRJIh2EM+dOyc+NKietPNLbdECR7uKtAtJLzyS3t1+++2ijTfeeEM0PWXKFFGuX79+QuI0ZswY8bDTbnjz5s0hJycH1qxZIx6aHj16wIgRI0Q9avPEiRNwxx13SEMUO7K0+I8bN06kUd3vv/9efHilpKSIF9cNN9wgdmhpAX/ttdfg1ltvhYYNG4ryVPftt9+Gu+66S0jv6OOY+lm/fr0YI0nnqTyp3iciBfsCjcbc3D9qYvGBEo1xK6WNwYMHw7Jly8QzJjHe9IFH0gaSwtL9TNonpAZNO//0DJIkgEw16Nnbt2+fuE/pWXDe2V+3bp1okxgRklYMHToUmjRpIqZNdYjZv/nmm+HHH38U6tb0QXXbbbc5pNl0D1EeSWnpg5k+xNzJXx/+1gWJGSI1b3puDx48KNTuSYJCquyrV6+GhQsXwpNPPgnSRyc9x7SW0DzC1cahNv7++28YNGiQx7NN0py7774b9u/f75gmlad1a8uWLWAwGAR+hLO0Lvhbu+ijkeZGRB82t9xyi1AzJ7MewpmYgldeeQVuuukmMVeScJH20bBhw6Bz586i3meffSb67N+/vzinf0iSR1J5WiOJaGz0DBKWdJ0GDBggrpWkUUHM4fPPP++QTG3dulVoWdCHNBHNl7CmdJKukZkRbUJQ/UQgwvPdd98Vzwm9W0hqSs8Nva8IG5q7Xq+PylTcP1DpPULrHVNgBGiDgtYLWnNIw0eitWvXim8Kun+jRe6b+8S80Ts+EorFphlJ1Glz9p577hHfQbQe7d27V2gHRjL2YOvGclMy2DH5K0f3FN039EfHEhFTTu89eqcxBUaAhDT0l1SE7y+VH+abGe+kutqJMRna0aSFyptKJX3cS0wvzWbGjBniY5Uk4/TBSS9PYlqfffZZYetJO9bEONAHHDHk9BFNUnNSk6Lz66+/Ht577z2xK0nq7MTI08uEbMqJaNEkhpc+uqkPUumiFwCp5FJ5UnsnxtuZzpw5Ixh8SqOPnxdffBHatWsn1DrpnFTXPvnkE3j88cfFgkILsfMHEr2EKY0+ponoQ5/mQJsFtAAR00Bq+MSwJyLF8gXq/lETiw+URLwmvsZMDA4x3PQMENH9RwwZMdxjx44VjOfPP/8snpNHH31UbIrR80PMN20uERNJ9yvdq6RCTYzHypUrhSogMWy0wUVMFTGtxMiSFgsx1cR8k68FYvSISLWQGEmSshCR5IOeM9qIozHSMyU9L5QfqA9/6wKNiZ5TkjrT3P/73/8KPxM0BvooJ8bziy++EOOW1LI3b94sytC6EC6R+iI9+02bNvXaBKnR059EhAHN+d577xWbHiRF+d///gevv/66YFL9rV30AU1MLM2JNklo7ST1dmIUiWgdpDXoo48+gv9v795+ZTvq/ID3OT4DGHzJzGSQBl/GEoqSeCZ5DAOHgYOHF/6AZJTL2JawsBDYGIFicRkwzgvCEAFPgLBkeMAjEEgIISGUYB8kD0+gERPxggiO8QhpJG5WIgzYPlmf1fvXXV179Vqr9+7e3b3376ezT69LrVq1vlX1q9+tqvQZirQQT/VK4WackP8f/dHiljZ4d2BAucdbtQO8Ut6f+9zn2jbC26uevaMkfDeuKQOcX/WqV7Vefsq/8ExTgkQB7Dopv5DX66+/vvUUhkGH51T0lvZl6hQs1kG1gGoKVdI4BBjLGLe1sVtvvXX2EGO7tkbOCFKvRzX2awOMWnghPsNwKMzd+I+3kVvIOH35P/bYY21UDN6kP+DDnAurGM18AzkIn1SmV7/61W1/ZBzTNrvIFCRrQDCuknnksa6ow673lddWNUqWzw7V1xjnCV7HSOgX7wzjY/me+piMaZzUhkqZlTGHMyciHuI5dfGd73ynlVHJv9oh3iBcfowhVP9Xp8ZTYwlHDt4ZRlDv4YW3fgjeiyff0hi9heqHk6jPqB5lIDOTSfUVTiBrgvgmMiqsGRgZ7IO0Gdhpny9/+cvb6VOmUKEhIzs5WQSY9m1Mfstb3hLZ7v9vI7csU753XvHOfbz3v/3VX0AorgW6Oo1zg5UBClMLQcx8GiF9hMR3vetds8coubxGmA1ro86MoYUgi5kSPnnTa7rpppta77PrBjuKBSYiryEiWFH+CEFhSb/rrrta5YURgBA5RJgchQWzRpglAwBGGB63oTx25f6qA2hftEAMBMu8chSRWqhxHgLKENNX1qFohHUM6rvu1dP2hMv6VoOrOuHFI6QhBjLK+E9/+tNZGzfwXmoWQkQUMX2RwGjQpqhfvHhxFtYuAoWyRUEPQc67GLr0tyDTT/QlHkOY3X///TMhWRkphcizY94hbRdfcF2/JQDz6uhjlGHCim8kPPgmRr5QvAkeomy6jIXyG0P4HhqztgSlFh8irEckwdve9rbWG8WbyjOP+ngXoQkR8EIpbC8U/xGiwvhhsT31WCrXRdJDh5QVmJRlIbTjzbzWQ4Q/Eri0AfzZH365Lg/x0PuPe1871a5hVuOr/WjfJf/uiw4Y4lVdAqo1D4yHDFxDER7WcxiKPhiKsBijwBjLjF2+R10auxmlt03qR1vVj0PxZtjTBkWzlYr3cYz9lG38KYz7DPrGI+2EgQrPGcpf1J7wamWlMJNb8AP5IPnLr89oJgpFdA3nA+XwG9/4RqusdUUORd3g2aJPHnroodbh4FtOqi+uapSMMvsdwnPIeSLE3vhGJoUXRTWihcr31McUYYqvca9UvCni+J9+EKQ9fOYzn2mNoKLHKPif/exnJ1dffXVrvB5Tp5Ru9WOMxdu1D4ZLSjzeabHOWIDUmGEst3ZBzEEfMqpHGR5++OFWedZeGW6NQdZVUW7YGHuDZ5MVwvFkLNWnGMkZWMkIQ0Z27ZHibuwpI6sCt336jX28P3rpD+b7eC9Rvnde8f7Q302FlQ9enAqB+1QRWdZuBAjRBvkhIgRTvuqFnzAV1sMgA3wsvOGa/GOQijR9vyHYRppQROK879d7hNCG0i0txdk55jpG8eYh4e0zx9PcQAICL9SmFg7p+57j3ltlAB2KFoiBYJmA0SXUMLpE3Q8xfQMRAaYvGuG4g7pv2HWvHq+qgZVnmSBKuTRgB1GGkfZM0UPh9XRMuTDw668UL4KjgdegHcTg5fmSyn6nz+nr+ALDGoEvQtM9Y6CP8OOx7+jjC9qIMpeKEc9wEC+CcHhl0k54GY7rYfSNaAzv0y4pC3hJEKFdmcsInBJD6VbhXdKXz0f5CKJjCIYlZpGfuibsDhFhS3sSwYTnqWOeyU2u7D5UplXuExhRPT5FHowaQWOiAyiry6JAugRU+Me4NxThgRdqUyWV0QeuD0VYDCkweC9lQj+hHFAMKAKit0QFbJPwYUqSqRumXRhblY9SUo7RxzX2198o3JhCZ1zkBBibfyiDwW/rfJ0vM5pRxCjavjM8j/rWO9/5zq5sZtcY3JRPWckhFCG44YGbVsBXMUrOCtwcjMWzfKY+ZrTCs0Qj+E68X2RSOQbWz8Q5h5BpWRw92hLF1LeYjsMJECQ/imtEv+DrFOOSl0u7rE6Nt6YCmSoRTihtQz0bd40LZBWGmpgrrQyiuYKGjOphEFaGMCRoE5xfpifh1/KEC14S7/Tc29/+9nhN67lm2H7Tm97UXtOGGCG1waAwsjPEm2Ikj5iKGWn27ffv/+k3k8tPPzv51W+q2d2NXMXzjeLOzive+wZ+lncYAYMRy7gOGcJ0PIVBCUkVDhVCYQiEkYYgXD5XCs+RZpXfVQcVAksQgcZAV5LydX1bpCmfd83iHIQ3YUgWgjEQsGhG2G08tw+/qwygQ9ECGD3qG4xKoaYLnz6m35W+vLaOQX0fvHqUguhr2iYFryRGJAJDGaVSe371W89F2677pPYdSkLkvazf6VPyL8vBaxPnY99RlyHe61cePNvLKIR0XgRCGUH9qHO74x08V4jCVhou4j4PlWkaFCAYELRKg550cC553zIMI8+h3z6Mup4N7AnjcKl5s/KhsoxlPvG8a+qUt4RRw1QHIZIUo/vuu28nvKRlubuO8TrhuWPqgFA8FB3Qx6vGCqjLIjy6yl9eGxthUT5TH1NktScCNlwI0voYPrptxVtZGWpNDeD9pwTzTOrnJW3a2L9K/n1KtzIHz3Yc/ZDCjlfpnxFd5L7opb45x3jSgw8+2I612qkpJJQ6so1II3/L+rT8j0tR/jFGyfJdY/Esn6mPGXpFPJX9GAZjFG+4wllbonj7FVFRj4+uUbZ5rBmgKdxCuUujj3Itq1P3yEEihPBJv2SLkDXdp/yXYeeu+Y5wRAwZ1UPxplAH6ccWiAtZTNuCkz6NYOdbSyM7A1wY3yOf+ru0T3VdywSR/tT9Nsp3oxTMPmu+ysTsUh4kAptFgDWV14qiWRMBTMclqIegj0GVJAz1pLYUIkhgEiWVVkplrMuHwRGilDGUhTKP8nn5Ysa8ipQbq4paRAezJAztG60ygPrGvmiB+Paaabs+1isnbf18MH33+qhvUK+9t8vyKb16vD+MKq5FuOOy507qujamvYY1miBA6eOxEnbnTyhxDMBRLtgEwZO3jmAXyqxvjOf9EmxqISOer3/lwbsmbC1In48+tK53KHNJLPsUP+R7TTURbk6h4GUoBbPyubHHPNj4GoMTgakk5/gA3LzHNxKu8Mkg30+46hOgI+06fvEuynWQCJVYWRlf1Ndr3hfRCgTS4H1lHiXv0/8JqgwavKQ8owRHIZX7QL5RtAheP0S+Vd2XhC/BpowOOCqvkq/+VQqy6mcsn+TBGhNhUZa/Po6pWaaIiOASlRah0nXabZz7PrKHNqdv+ebwHkZ58D4U41hc1z9LxXNVg1XkMzZ/ZR2iZWWIdwhjLglPW0a8sxRDHlUYmd5laoI55tpt+e3L8jjO9dIo2ZUPo+Q999yzwI+ki28dqq86z9IAKI/6+bIf1c/W5yIWtSl8wFhRG3OkZ1x8xzve0c7BZoQSwRJjbpnfsjqVRl3wyvNCGwPuuOOO2ZikfRof+urcNwdPjnd2GdUZREvqKxPs6jzJxGTZ0mh83LGzLM/eHjfKt37UqOCTnVe8P/Ca359kmPneNrXOgpvLLASK9RlD5Tkg1JkTY34JRkYhI0j4JZCGhY2iQLgbOx9E58cYCPFjBKS6wARhjI4QQcgyz61UOixgJDQrFqfC/KQxiBGiMDGMyDcQsMyJ4f0oyfwf82ZCyA5h6aSMC2VZjnu8ygDaNeAZQNRTOdD3Mf4x5V2F6dcDsvzrQbkWwuoylHmEV08olpAq1mrhXxbrOmnSx7Q1fzy5BnJhvqJLCMhIe9aGtVH1wwhmLillsRTc3NdOpRGSjSxI43vlJazNwkKworyao2oe+RgiDBMgKMIMUmHlj2fX8Q7eAzxB2bQ3mMCjrGtKoAXJzM2tPQlRllV/LaDovRabw8dY/SnTlE7fSeBF5pYT/mCgfP7wFR4HdTSG4ITUoedXJR43i/Uwemg7tjor+6VywCf4IT6Oh992221tuvDYmfONf+Pd5bxH5ROaTChVz9qKNhVzElct70mnx+v0Ffy/i3gJRS9IMzY6YBVeVb9zVT5Z8in9eEyERf3OMg/17XvNDZUfviG8Ocaz+tltnFOKjNWM/sboMOJFWTZt7N90/r6j6x0iUWJqRHxr+cswRNYJohia863vHzfSJ/Ls+13FKFnm0/Wt7pfOGf1CHyypNABqA7UB0foNY8m4h6eT8Xh6Y12Q8nnjJ7nX2G9NDdEXY8dD+eAf8jC1x6rz5k+TD8OoaVwwdtXfwageNNaoHunH/MoTHy+N7MZ/XvJVjBdj3rXraT7+l42c/x9eMfm3zT7evXQu9/HuxSdvbg4BqywSrnmYCHQI8+BdK+cN8oSY42thIYoLAdDAPnbBFoq3AcSCDxRfnrxVCBO9fPlyO0+XAs9TyWgQSjKrpTk1FAvlI2CyRt57772z1yivhTUswoM5sgZa/TcIEyWwEFLcl7c0pRIQaXf9txxAKXTqNIhgXXr1DJpdAwUl4SSMDmGpLQflckAuB/VQTH3LmEE9niXQ8I5T3Agwvo03iFdvbBsO/I77S5gIgcK3C5Ezl0v7C4K7lUUJzUINCWxCz4T/lnXJqGSVc4oYgZ1CGZ5YXpNPfepTbeSGQZlSZXXySweLscW7lv0KXbOSt9W1eWK0G/PFKKZBx30HD7w8vMN34UX6tXIGRX3ph7W3MtKs+ktQEQ78SLOQnNDOIEqLradCWWXkwPOUjxEDzngZvgLvMUSxkB8vibpalWBh6ovVuQlRpsTEgm3ywqMonaYGEbQInYwmMT+QR5gAz3jAaEChxt/Do01xxSPwPnXOCMEbxJOzD2S6gHryfdp/SYwQjDrGMoK/NoTXlQacMjqAcXeTFLyOoB5esZLXlREWMe7gi4xCscLzMgUmeB0jDf6vn/vzLntXi/IhmO8C4bl4mjbYJQuUxn5pYRXG/nJMX+Vb8EBKFsP9JvKvy6I+8Hb827EQYsbRvjBu/ZaHWx/Xro1blDZlp/C5P8YLX5dllXN9yDaDjJIWdhPmjucLY/ZrTKhpDJ4MCr6B84Q8J4ScsTDaLb7PU236I6cPg3G5hlD9zvoczzI+xKJj5MCaYMdIFbKGMjCE4NFjyBil/zFokSHkFXKz8RGRcy30RiYVYm7sZGCPudMMpXBgNDfmy+NLX/pSG61mTaHIZ0x5Io1+rhywwyfMcSfbkiNsLTmGtDH80vtLGWPMs7uUxj7ezz9/oa2fIUP34mS+XfqKLMupRkBns00BIQ0T1OF01rrjEQgIqDzFGAUmWg4AGHRNYX2L6xg65dg7Ma9S6X3ggQci2eyXoBrkXcK/KcOeLb1+kYYwyYNGwcKEMfTSM8TKzsJJ8TdQuMcrFESx4XkkCFHcCaQh/ESaffodO4AaCHgeeCAs2mFQKqMFwprb9+3qNIQax6uQ9OqKMYBS4P1lNMI6BnXv4NXTbswrpIRuw6tnLu1YInxorwQDAjtsyvYsH9uIMZ4RiPTJ8r5vZdnnBdDm9etyzptQxrIPyo+wUF4TtsoLrAx4gOcZsIKG3jGGLxA2CA48wowG5Td4j/5OoSSY1feiHEf5pfSbTkLY8Of78I2atBfTE/CVLv44xLuU32q92htlHe5BPKsl3q57R3mN4GuupzqmRMuvJHkQhvFxGOJbtVFAG6Hg4GsxhzBWUZfXnc2iO1YA9g4Cq3eGkli+axePtUHfZ/FEZRaF5RsJn6K5LBIXCwzhdYRi59qaei+jA8Z8H15yVAE1DDqiD+xFT6kqow8oJBQvRoSIuqgjLIYUGO2M8sEjZ0yjaBqzdymCQZtlUBMaTJnsouMa++s88TKRfQyajK7rzr9+H15lhWltUP/Xbxl8KOPLxkiGZcpnpPcM3shwZuxgSBUqvU4+WJfbeDvGKFk/N4TnkPMEn7XwmW98pDGIMszYwi0U2/p9XedkPGsHdIWZS09GFAEj8o0MQN7Rz/QXyjcDZB/hzWRl6SntZBVlVh94tr6pX5sKpI1RYtU3uZTsjIaM6kdRvJWb/M5ALFqVzEYBt7DfWIIZxxgDb9eYNjafXUqnXijf55pCdcWanWvA7rq+S9+wMFdgpwqWhUkEEoFOBFiNDWKlV4XwZ5AsF++wJRiLdh0tQBnBxKU3GBsckcGBYs/7YEB9spmnZ+srQp8Bh+JsAMTAhQi7RwAJgw7vhT1WDRS8eAQw0QjyZeyIaATP8+5RCERcUH6UMSIuDKSIF8E7fC/hW0QEJYWhJryMcCB0l1498yB9474RD6fV9ymOlKTTStoDb2+EC5eGg9P6zfldR0NA3+Y5omQG4U1WAo52g5cxwOE3ZXSArScpQ2N4lcgrAqp+hz/5E77KyEQgN12ChzkIXzWlhTKFRJd985vfbIV1yrAy8vzim4h3DF+keBAcRVhQonnP0BCvc9/2jHgyXioCgicQv5DXPhGheZmx/yjfQdnSPqI9rDv/ukwUM+ORuvSrPkWmMF6q92XEUMqrWhtTl6XfxHXYDBkl6/eOwbPPeSI/Y7vxnpxynCkfddniXBlFtjD2h/OI3CKqYuz71CuZSv2ETMPATebQxtSzP+MX4wnZQ/2L7grCi/qM6pFulV/YUcDxtqPINYx0yh/ROKu8e5fSwl09z6g5Ls5ml3de8c59vGd1lQeJwF4hMHYANdAvixYY88G1UDPmmTKNwayMRijvOV7HoG5w3EevXo3FWVG8TfsgoBBUeX6SEoE+BAhc+gbPPsU4BOv6GcL/suiAOm3X+XEFVLy2jD6o34EXLouwiLR9CgxeSTGgdFMGYvpJPJu/J4MA76HpQDy3FDRRZYyIIuvUS9LpQ4Dxz3QWUxo5FRiOtAPeZ1FsSZtFIPbx/tgb/nC+j/e+Kt5XffRHLVpX/uu/2CxqmfuJIcAyxkJfEos4SxkhV8jiJoj11z6p5t3dMjC3htXeYkvmWdYhlkcp27rzO0oZ8pmziwCvFo/LsrbPk8Y4IBRWKPQyYuSI0OWwuC9Lu8/XKVEE1HX0/X3GIcueCCQC+4eAdUjIOgw1jEA8knffffdsvv7+fVGWeAgBRjURJwxnprkw8JkqYCpQ0uYRuPTo05PLP/n15H/8+z+evP6mYleCAw946fm+sPni5BsSgUUEKAAWYmGFE5qCXGOVNRfqgSaETijNuok1niWeVX+IpJF2XbTu/NZVrsznbCAgbJrCTJmsjU7C+iyAhIYs4wxk+7z+wNjaNt+wixjvCLDmO8b2SV3p8loikAgkAttCwAJp1ocQfUD2KEOTt1WmfO9mEeDl5uE2zkfI/LLIm82WJHNfQOCcmd4NHSjgDlPxhkLSVhCwuJEBIsgcMfN5zUMzj3fdxHtFqR9DFqYYm3Yb+Y1552lKEx7b+CbzmERImK9my7mxZAEhoaAWOzLfyjxIC0Qtm2NFeDGfW3vYd/LdVlo236ucc2lRHfdYypOGEaB88/yfFFmA0NzgPrr99tvXFkJq0S1zANNT0od43ksEdh8BC2olnS0ELNTZtVjn2UJht7925xXvb/3VDe1iAbsNY5ZuHQiwzvHIWZkR2dLIAlcseI8//ni7zQTl2cqrzs01ozBYxdwCMLZn+fznPz9585vfvLCSqkVt5GvhLAtrWYyGwk+AtnIrTzsLoXcRYIW6C9USDm9hGO/kLV/2XmXlMZSHeVXyjIVlGBB8V5mf9Ba8saqlFbXNy7EasNV+Y+sW77PwjW0tPG/VUaFEvmNoBUz5nzbisaVox7ZO5ilaTMj2GBZaswr3GBJy51nkWOSF+ZnLyEJtlPTTQFbz1Ta1N4vABcUKv+WK7u5pe5Q+KyDrZ57Rh4SY//CHP2y3qKHEf+ELX2iVdvM5LSgVwp7+qQ1btElfYyCx8nMY28a0cQogY4ntbdS/Fcb9IWUQIm8Om7Lz7li5Gz949NFH28XRCCB2NIgFojzH+KAvC8Xj/bcabBhv+voxZdtWN8hCVfq7UL5NkwVn9Psg28TEivtx7Thh/xYctECgOaAW+tI/ggdH/vmbCJxlBPAyq0czWFoxvDbUchpYFRtZELRrS6mj4JdGsKOgtr5nRGKacmgMi4gxxn67evAwb4pKB8Gm3pH5rhcB+3j//NfPL93Hm7MICTnfecVbrHzpnWlLnv+dSgQI+OZCx1665oJ///vfb+ufsE24JGALR7+z2YaGgkyItmCILcAoveapUiRiCxPM0uAlNJSgT1nDTJG9B+2RSzmmfBG6bWFknow00noG9b2XN1S4rrwo2AR/30LpsL0MRb/Oz3daLZvX31Yftnkh+FpVlqL95S9/uf1OeRGG7clp3ulJCPrtB+/gf5RueASpG1EJcB+reBOKzippVxRQHu5QvPUXbZWxqlS8tX2rvZsTbtsS3nAGLEogoYMRiOJrHmFsDyV6QGTCBz/4wRZizxNILfBDELWCPQXPnvcGoaE2bnEYW9nYT5ewq6wUbX3JPqTKoB9ZtZ5C75u+8pWvtP3fM3iEFae9T7/yTsaESK9f4i+UaSv+DvVjbc/WWLbYst/tSYWa+xZ/QXie1axtZbUO0o8YRoLX4UlJm0UAz/re9743e0lE8DBK2WoohLRZgmMcGOcYpdfVXo5RlL191FxpRlpkBfowkMcHqcu4ry+Nodrg1fVMGsG6UDmZa2RCsiUZ0pZXtzRGWmMS4zVF/D3veU+7YvgmSlM6CDaRf+a5fgSm+3i/cDCOTvWGrrdQv3de8e4qeF47HQjYJzG2D2BRxtQo06USZRAT7kvpNgjxVNnPMPbgpGATKiiuVnM0R5VgGnv+UjJs4UFIrj2bBBLzVQmxCGOlpNdzwMe8N2pEqDxLqPfxqD311FNx69CvPRZDaTEHS/mFP/MuUrR58sK7Z59jKy0nzREgnIoUoFCi2M5G1MIrX/nK9poBzOBpXi5PrCgKbYaiVhNFjvfW1mA8jKfNyEGxIkDw1mpb+pT+AY96TrN+R+Hm4Ub6BmWBVzlIfpRbbTPI9iU8w4yl8r148eLMCOa67Y0IMmFM6mvjDAEMV/Y+DVKfohxif2TXed3DkCB6Rb+zZ260D/PeXLONiygWZYowasYcyjujWzmdoKsfwyu2tbMl3qYWgYxvXeWXh5qX/wc/+EGLregG9WcrpHrJIAAAHvpJREFUGcQgKLqGoYERRBSH/bOlFyWEbBGnPkQZiDAQvTAmskE7yOicFsLR/zFkUbxuu+229hn9DeamWYWhSR9ZBzFg42lJx0fA2MywXyverrm3ynQd/Ua9+11GaQRbhszmr4sMY5RmSObUCSJbPPTQQy1vDNkx7q3r9yw7CNaF4VbzaWTTpmMvLUIq3kuhyRubRkBoN8EaEdSFkgoVLcO4CJAEXkSAoBRHuHF7sfkPU+TJQjxRPOKER/sxUq55lOVRK96UdB464eTeyxtooIv3tRk2/415r7SUlzL8iFJPmFpGJTOPBasoJd7vO0tFgCJ41rdmoXQxTCBKMmHS4Pjud7+7vaZ+KVEMJUEEG9d4LJD6KOso0vn92Mc+1npVRVxQ2nhX47ky3T4fM2rx+Aqhp0QSGCnjNVFkKduUNcIkhRvWtYJet2HtlgEExpRbihtPOG81JQ8RNBnZhto4gxqjmeeDKNCmcUTUiuvKGUSpxEfCYxh1rb0w7sWzZZ62DSsF5lX7cbx7W7/avakrFDXRBabGMDD4JnvJw/vTn/50W894nXoUPuk7rWBPCYeH6AbGBN674FtwG4psGIpc2BYuu/5eBsMwAEVZ9Ut86Gtf+9pCdE/cz9/tIkDhZvw3LoRhRB/hAWWkLKOG+qbaMLrUBi9jG0M9Q6b+qS+bzqIvMoIhfdpzFELGevzcGiTkJ1F3DPbf/e53W4WePCPKIZwb20Vu/94ei+vWEbfqxzTB2JPdl/VNiSJ/mKYgshJfZpAmu3CqlNMGya2iKThgageBOhXNpT2Qf8m5MW4zaOMXxnJtEU/XdkKmzHZxcm3v3Lnpu6Yq98FJx07eO6943/a3/9gKUY/9x/Wvcn1y1ZFv6kIA84j5nl33XQtvpmNMBQVDaU+a/wieIWhT5nk2eb0J3Tw9MWhF+vj1fkzMPFZziHm9PB+hspFuzHulJfCuQsvSx/vqAfOaa65ZJftTl9a8fn8lUfzWsZAIwUlbuf/++2feU+1M+P9pIv2JkckgTUElFNgyryaeUVMhDOIMQJT0WgDxTGkkq/P48Ic/3BqtzImThygQCiAa08alqfs6rzUBtyxLCMDx/mVlCmW97nd4QCjo8qjvR767+isSgSFDGH/MBScUUsYZDeFIYCMw8tT7o3TDSd/B8xBjS8lv43sp7ncuiWyggGR0TiB1/F8eNBEZxiKGEBELQ4L1Jz/5yVYIZ9giuKtDytiytSm0Fcobw5a+o3+KENMHGLAZ20y9iH7AkGY6hrUQGMLPMqkfdRO7ssCCoUp/K42QrvdNtaE01wYvYxAFSxSSNV0YwSjoYQRjeBa9ox8zNrvOYIYXqm+KmcgX/Fwdi0Kxt7MIsKTVETD26R+mU4lOhDtnDseI6VZBsO6bEsURwFAichOv1YcYsi9fvrygeOt3MX1J3caYpF3o4/iBcZhsSy7htCI/U9LJrxwGlHoRYcojgkke2S6ipjb7G/t4//fb/nm7j/dyf/cehJpffvrZzaKVue8NAoRuxGNjYAqiMMWCTq5RqC1ARADhDTPIdRFGxypMkPeHGZorbrAraex7y2eOc9z1Pp5bVtVYBOo4+e/rs+oo5njzlhrwhNcalAwyxyFCKEWkxNdAGwad4+S9a8+ylBus7fWpf1DA4VmSwZuQyWMaZAD3zBjSJ3nvzMEPxY5QGTSmjVMOCT5R557l8ZFvCCWR35hf34nwA4JqEKGF13tfiVBH8P/Wt741+wTKGoIXHkdgNOXCsXZN+Btbl/IplQrGkIhssO7EUOSC55PGI0C4ZmAU3SHKaUiwVv/asGgtOzQ4th6D6I9y2pYSUN5CSTBH1bnIHusgmF5BkGccY3ijkCPTQygCQ0byNvEp/4/SZQ4+w2VsvUhR5gmvx4q+qTa2UQ2+WBq8RLwxmOmvNeHJDDHWu2AUoRgyqjGuMY4pkyk4+qo/oe9khqSjIYA/ihASfWDs++IXv9jKCKaCvPGNb2zxl/PYKVEU45g6QEZl2OaNZixVT+RP/bcm+Xun9UUQIza+q0/q4wyvb33rW2ftkQwjH+3h0qVL2S5qQDd0/vf/9JsJffWXz9Y7nvB8L6rh5zdUhsw2EVg7AgRxTIXCHOHElGRKUzlnV2g5pcxAtczqr3AWkBL6IyQMGfRQqcQ7H/teaddBlBLMlSeJAqN8Dz/8cBvCu478T0MeBA/CiRWrKRdPNp7bLgovZ9e98hoBhvISc2Ldo/SV52X6fT42iDPk8IhEuFr9PYxWlFFKlT99iXAQCl2dvj6HHQr89ccIw5THmDZOaGBkM11EVIu+YOVgoc9HIWVisCOoCPWTJ+8BpeOZZ54ZlSXvkjYhdJ6wuwsE47qdKidDFZx9N2XLXHmCmrBEHjMK1VhaFkWg36CMzhmL5HC6iPLQJilV2qvQUYI7Je2ee+5pFS6CdRAlDC80PprbT+G2CFRN+rH+Zw4poxtDzF133dWGSlPgGaco2PpFEMVSOvwxadLyTIYJMoi+xyPZxUdNIxARwiuNb0X0VB/fIGt0Kd1wp2iJVolIBNd4QdUfpZ8h4Ktf/WrrFacsqmcKXtLREdAX8Er19773va9d98U4ZAFe9Y7InwzB6jn+TBuIaU3xdgabIGMwXmxNEqQv649ddW/6QW30st4PmVefRT/+8Y9n71b3yqMM2S5aeLbyX9MlG/y7X73zoebdxc6rZxUBAgNLoXAqjIvFXpgcRhZEcCGgEK5Lz3jcj18rI5tPh4l5hoJLWHVcL4o25r2R73F/MUtWbXNxWb8NtIwJlPFQaI77jtPyPIsx0hZC+aAoBrEijyEC589+9rNWoQpPoAG2zGtMPvuQhhLF42mwj0UK63LzCBMUKWsEOEKDeW0MVbc0AkJ4rOvn4pwAYQ6b8GdKmboxx413zVQO4XtDbdz8N4qHFckZnhgCeJYsAHZUshAbIUqEhL7k2yg0lPwxRKEVCuw7tBcro2+bCOsMkDwisT4FpUAoI88agZ1xCg9R7wR/a1swvJR88yjfEe2gjELK6JyjIDl/JtaVYACm4CGCdaxv4TwEa8eoFsyNFeYi16QtUM614yD92bk2wlOqnfDu4X2MU8qQiz0FWpM2EghPE2IOH9M1LLgVilik7JtqE2nq366pHpGGkh9RO3Gt/LUzhZBofJ2xhKGTjLMLPKos574cw9AYYWoWGUy/8UdGtEvOE0880YZ+Mz6GsSy+DV+UruxnZd0aDxlrGLgs4qrOyvD1yEcfNO5ZRLaLvJu8GHw/0jC4MNKgbBeByjZ/aeBzQ/3OK965j/c2G8tm3k1IsNjEEL33ve89lMTA8+CDD7YebQORsNGSocUDQoRqonCU78WYhF9Szgiq5lQFA8Vsy7RD7+0a3ITIRphsnV+Zt3JinOU1g7nQP0IsJo25mne3LGy+/tbTeE7JFqWADEisxeYk8vaEAuBXRIQwP2nCyzqEBwXUfDjCKuWMR5Nn8LSQcPyShKKVYW0Ei7L9EcCt3ErYh2n0MV4VQmfdl+QthLnMg6LNC8c4pm9pw8JoY9GaoTYuPU8fIwAFnBJZCp51n1KGWGjPMaK8lGWyToI06pfi7H7pyRvqx/KM79oVI5ioHp7MELTxRW1ZZIDQRrxN6LFvhz9jg+gefQTFdwhtXpW/aBsRnePYvENKm3nBSUdDgALH+KddjhGsvaVsw87xvtIz6hqSnxDkkiiPjDH6G6IQ2PlAOQj9xiYGm6QpApQp4wVlSV+CV2AXGDHa9k21iXSr/OJ9dbSP8YrDwPx7iiAvKN7N287wxkDoXh2Rssp7z2paUzYYFI0zJRkLSz7J8ImHhqwnLSPW0JQoyrE5+9YLMBbF1IXyXfowmVS9xw437jNG4+XahL5rWkjs5OK+usePjb3ZLiCyebKP9y869vHGVqfBcXPle+cV79zHe/MNZt/eYJBb1wrfFIhbbrllFATrfO/QC1nLDaAUD++lZFogKeaFDT1/Gu8bQPwhmBjweGdKZUn0g0VtrAxqwGJ1LhWvZbgQXCmiBjTrAxBGzZeD+VklGNehb5TlVYiyVy4KSIiPnQzGtnF1UysWq5ShKy3FJiIbuu4PXSu/aSjtpu8zHtg+zVxg01MY6xgV77vvvlZpYvQQPSC6B46UYvV4xx13tEXD/9Sz9S3KOf1jyq2NDEUujMkn00wRYFzE4yISYUiwDtwYpkqy0FrXGEkYp0yUJFyV8K4dIW3bIk+8cbzvlEzjZNIcAcq2BefgZnvTmsKYxQiG6qk2rkWasQYv3mwLwaoXEUiUMWHFws3VGeMbQwkPqrwp5Oo7lW5or04UY7KAhQht+4pnMlyZ+iG8POZrX2qipWyNa0qUiCzRKWQO/clc8GVEUSbDPNJswWlqyLIxRb3bZpAyLz2l2rt4yPFtPMJ2ulawlwfHgznpoiWzXSxDf/3X7ePNEIcnLKVmvEQ7r3gv/YC8kQicYgRYrIXj2lechZXl0gIasWrxKf70zk+rPbadiZqLBCKDGAuyQYpiEHvleuaBBx7w05LFw0qlnLD5iU98op3LbDCjpMR+8PFM/q4PgWzjR8PSVJuaeEu0e/PwRcjwZmv7QXc2q5Lbt5shybQMXk/pEK8KIY0XXEhj6eHpiiqoIxuGIheiDPm7iADjXkTwOLZgkjmiIjtM60CmTPUJ1pEjBYERksGF4k4pE5lRk+gIyhtDLuWNZ9xc8Fsa4wtDb5C8THVixGHETFpEQMix8UEfKnGLVGOm2sB8FYOXyC7RWIzDDJgUal5QU2X0dQYASpxILYYSdccolnQ0BODNoGkBV8osYwbDhnoz3Sk81MeZEkW51+f71iIyXQDfFgGKVzOm4OfR7kwHs06JKE/tEX9X7xHZku3iaPW/zqea7jkjavm5huH3qOeztFs9KOdJbLUg+fJE4IQREAZPOBLaZLBNSgROGwLZxve7RoVLRnQOHkWpsz6AaTxn1VA4VKOEedEJJTGWULR5skrczMsmWBO+Q7CmmDMyIpENFEGh4cYKdUAhY9hCpiAIZzVFC339619vhX0CumkIPOP33nvvwjQO+RDoGWI+8pGPLBhx2kzyv1EI2N6rnGrDwGKqTUT9yCQMXqWhrC9zdRMr3tfPeB9+6jrF6yi7P/S9+yzeg7eIBfVI6V6GqftdU6LWhZnoCX8McTXxtPKIi1DBR+oIlWwXNWKbOR/0eB+8ducV79zHezMNJHNNBBKBRCARSASOi4D5rKJzCH0RnXP33Xe3YZfHzTufnyLQJ1hTvEUziOyxJgNFumt+d4mlkFmCumgFHrRagZP2/vvvbxV4HrekRCARSAQSgeUI1Pt4L0+5B6HmuY93X/XlvUQgEUgEEoFEYHsIWCzz4x//eOtp4x3K6Jz114WoP2HJfSRNLJjXl849XjuL4nURr6yFpcwR7guB7Xo2ryUCiUAicBYRWL6P92E0co73YUzySiKQCCQCiUAikAisgEAszrXCI5l0BxGw6r+5rMLZ172o4Q5+bhYpEUgEEoETRSAV7xOFO1+WCCQCiUAikAgkAonAehD40Ic+NNvubx052rbSHPOhcPV1vCvzSAQSgUTgrCGw83O8L//k2Xb+0aWbrz5rdZPfmwgkAolAIpAIJAKJQCKQCCQCiUAisMMInJrF1WCcq5rvcEvLoiUCiUAikAgkAolAIpAIJAKJQCJwRhGYKt4+vn+zsPNnFJ/87EQgEUgEEoFEIBFIBBKBRCARSAQSgUTg+Ai0e3YXG3d35JiKdwcoeSkRSAQSgUQgEUgEEoFEIBFIBBKBRCARGI3AgPK984q3fbzf8OjTo783EyYCiUAikAgkAolAIpAIJAKJQCKQCCQCm0bgUqOnXvXRH02+3axLNkQ7v6p57uM9VIV5PxFIBBKBRCARSAQSgUQgEUgEEoFEYJsIcHhfmf2nJItzvnfe471N8PLdiUAikAgkAolAIpAIJAKJQCKQCCQCicAYBBajzduz2WOpeM+gyINEIBFIBBKBRCARSAQSgUQgEUgEEoFE4OgIzJTv2cE0r9zH++iY5pOJQCKQCCQCiUAikAgkAolAIpAIJAJnGAHbiS2jNtj8IOJ85xVvH5H7eC+ryryeCCQCiUAikAgkAolAIpAIJAKJQCKwLQTGKt47v7jatgDM9yYCiUAikAgkAolAIpAIJAKJQCKQCCQCR0Ugos05vXOO91FRzOcSgUQgEUgEEoFEIBFIBBKBRCARSAQSgQEEKOA7r3jnPt4DtZi3E4FEIBFIBBKBRCARSAQSgUQgEUgEThyB2Mf7cu7jfeLY5wsTgUQgEUgEEoFEIBFIBBKBRCARSAQSgQUEdt7jvVDaPEkEEoFEIBFIBBKBRCARSAQSgUQgEUgE9gyBC1euHKxvvqsFPyjfzpdzV/HLciUCiUAikAgkAolAIpAIJAKJQCKQCKwfAbpq80dXHdJXzz333HM7rXmLlz937tzk0s1Xrx+ozDERSAQSgUQgEUgEEoFEIBFIBBKBRCAROCICfduJlVnuvOKtsLmPd1lleZwIJAKJQCKQCCQCiUAikAgkAolAIrALCIxVvHOO9y7UVpYhEUgEEoFEIBFIBBKBRCARSAQSgUTg1CKQiveprdr8sEQgEUgEEoFEIBFIBBKBRCARSAQSgV1AYOcV77/823+c3Pbo07uAVZYhEUgEEoFEIBFIBBKBRCARSAQSgUQgEWgReEOjp1746I8muY93NohEIBFIBBKBRCARSAQSgUQgEUgEEoFEYMsI7LzHe8v45OsTgUQgEUgEEoFEIBFIBBKBRCARSAQSgWMhkIr3seDLhxOBRCARSAQSgUQgEUgEEoFEIBFIBBKBfgRyO7F+fPJuIpAIJAKJQCKQCCQCiUAikAgkAolAItCJQG4n1glLXkwEEoFEIBFIBBKBRCARSAQSgUQgEUgEThaBDDU/WbzzbYlAIpAIJAKJQCKQCCQCiUAikAgkAmcMgVS8z1iF5+cmAolAIpAIJAKJQCKQCCQCiUAikAicLAIXTvZ1q7/NvmjogYt/OLn5uguTO//NdbNMnvzVc5PP/69nZuevu+nqyaWbr56dP/7Uryff/smvZ+fbvn/7n103ueX6OeSP/MMzk6eeeW5Wvm3f/8DFP5iVxcGDT/x84Xyb94fqftv3t922ht6/7bY19P5tti2NvO/9225bQ+8fqvtt3x+q+23f76v7obax6ftDdb/t+9tuW0Pv33bbGnp/tr3l8txQ2x6q+23fH6r7bd/Ptpdtz/iFTloXOY1t75F/+NXkyUaf+59/dcPk9Te9ZArskv/nWuCSBLty+YEnftZ8zNWTO/7s2lmRnvzV7yauB33gNb+/8MGPP/X/Jg/+3S/i9mTb9w0Ef3LdVbPyfK4xGlyuDAPbvP83DX4lldi6vs37Q3W/7fvbbltD78+219+23//qf1Y2/QW+8robXzK5/U+vmd3/8S9/e+j+X9/6stn9//2L3yy9f+XKlcmPfv7sofv/5V+/dPZ8133vP3fuXJsm+d56+eY2+ZoK7Xv/tvna0PuH+M6274/le1dURNM3CU/ffvpZZy1dfMWLJje89CVN35ued92/8WXNfbebRPX9197w4slN1xw83CSp7/fxHVkO3e9rO54/zv2hut/2/W23raH3j2176gmdtDx4nLahvJt8fttta+j9UfdTvjGZdOkar7vxxWBq2MqVyWP/5/9O/tt3ftme++9vGnnjta/4vfae8/p+5O8e6so/lLuu/PEtfAmRG2q+8xeNTHPztfOA5/r+ptvuJtuObz5O/kN1P3Tf+4do5xVvDTDoT66bN1TXbr72qlaZjvuvv+mls4bsmvMPvCbuTs810qCTvq+85ftv/9NrFwwF275flg1GJfbOt3l/qO63fT/b3vHa9rbaVgyc9fsNjEG3XP+iyQsvNCnJzw3/0E/L+23be+GFSXAW99//59fH442x7fcmzz///Oz85mvOT973qrm13f3nnptHvtz4snOT9/67uYHx5msvTH77299OLly4MDl/7nzyvTXzzbruk++dvTHXarT66H/6l1e3AnF01hsae9jzz8/75n/+Vy+d/MUNL4rbjVJ9fvKCvn2gmf/1rddMQuCWCC8oV7qtx/zynvQlX3Fet83p/YYRTf8dur/OtrvtMXXo/Tnm7ueYq12jum2XbXeo7rd9v2x7xv3X3Xh103dDApiel33b/ff/+fz+a1/x4pbfwMDfxT9+USsTnD9/vlWUy/xh5bxLl6HOvPDC8+3zITNQtEu+RGwJvhTG+5YvNQ+7h+5oonFbRb551jX3y/qp+dZx75d5e39Z9863ef/4bWtYrT73u9/9bt4afHFSIpAIJAJnCIGWAc7/W/rlU0bZ/D89OJSuHixmCQyus5PmoD2pry2el3nFsUGZ8n2uUb4P5Pwy1zxOBBKBIyAQSncYx0I4bUXQkEybfNvDquONvaZYke/hIk5fUmV9OFl7pUk7TR4/S9Ll5UQgETgpBKZD+sIo3746xm4ncdz1G9eM8VddddXkHAV8ROHxLkb7eB6Paf886/jgd/pT5iidqyV1XSvv5/G6EJjHGqwrx8wnEUgEEoF9QmA2Xh4aiRa+wt1zV/rTLDwQJzEAzs5lVOVTpZkNnm3Sadr5INt412dljkzzNxFIBFZFYK50v9A+uqAcV1207rOtWFv0Y8nra9PyEGjrzIqSNrf6bs9SSnSQTU9us+R5kAgkAieDwLQ/Hu6VZb+P467fuBb86IoIup4x3r1Z2oOE8oh8ZgzlgLHMrrdwSFfg0vKV5kJ5rbidh+tHIBXv9WOaOSYCicA+IbAw4CycHP4Kt2Ogqu4uDHzVvcWRbnpzcTCc5rvw9nZ0nF6JtKl818DmeSJwNARCcJ16upuwy0IaXThusi/Pva09Lzrr7HB2MC9Tx6X5TXktnC05Kcu2JEleTgQSge0hMO2ih3tzyTviuOs3rgVfunJlPn2t/Cp6tnv4lrTofPPyeP7Qb/GwewUrae7Myzs/Kh7Iw40gkKHmG4E1M00EEoF9Q2BmYG4PZme9nxEhXnWiqRG6I4/mRn31UB5VmjKvSDsPO58PuHUZ8jwRSAS6EQjh9nB4eZO+kExbYbQ+l+XAtfatzcNN72wPu/87uNuXZJ5RHHVnlVcTgURgZxCIcbosUHktjuOXe5tcUI71xvjzws4bXhMsok1zsB4FHja7J03Jkw6Oy2t4VuQzLVdzdnBh8XpZ6jzeBALp8d4EqplnIpAI7C8C7Sg0bihaGNiKL27HvWIgnN3quHYoj2qA9EikiV+Dbjm3a5Z/HiQCicBSBAi2R1W620ynnXEx/45ruEct5s4fajv0VOgdYjNt3uOSzvPPo0QgEdgqAvptRTF2uxzHftuUftu/+T18ysKNoZyH0u26a9P0U14yyw/XOXh3/Mb7DpdoWsBl16d38/9NIJAe702gmnkmAonA3iJggJu7pduz3m+Zpu9Ot+xeDKYLGR9YvWfX6nPFojkUv3PPdy641gKT/yUCPQhMDVZCNKe7DIRwGsJvPDp0Lt1MYD0QdOPZRvKd35tdjIMQtOO85zcE6J4keSsRSAR2F4Gu8X86hC+O474gxvY4bpXr5sRCazzfTYLWaIiHBX+KX88EL+s7dq/lXM2DM/41vZj/nyACqXifINj5qkQgEdh9BKZD4kE5pyPnYKHLwbROXA6oC/eahxbe5WZ9rT5vkywO2tOVUJutxqyEmqPpAsR5kggEAgRWoeV1eDkJtFSV2y5UdKT6XH6zblaka9/TnM/uxYtnv8295TdnqaYHTcLpv+p6niYCicA+IdA1/k/FisVx3DctpC3GfjuZNHcX7oei3bKUgrHEdfmVx86DcxXJp5fz/xNFIBXvE4U7X5YIJAL7hMB0gFTi6SA5VPaFgfMgcTnIHnq+GFxn9+pr9XmTMN4TvzPP98htSGbvyoNE4AwgsEzprgXT+hw0ndemNxaQqwXg+c1VFO4241S65+DlUSKw1wjMJIdmHC8pxu72WjXGL9wrH6qOS95UHktWn5dMpeVVVV55enII5Bzvk8M635QIJAL7iMBUoh5Z8sNDmivTQfDwveaGu4t5N9cWrtTns/wi3+m8VXO+KRjV+L6Yd54lAmcMgbnS3bFl2AAWC/2wSdv2Vn227bfVw13XqiT9p23u7Uvq9/Y/l3cTgURgVxFY1pdbmSB4RvNbKsqO27/mo8rnWw7R/Bf345vLZ12rzyOX9vl4KH+3hkB6vLcGfb44EUgEdh2BBRv11HXdW+S50rvw5OyZZZbszutNFgvB6PV5k2s8F7+t5/uqC828sMWBfFaAPEgEzgoCTX954WDbnTq8vBVmQ+iFB0G3wuVQGskO0lZJ29PDwm6b+OCZrifqa03uB4U4+KkT5HkikAjsMQJT+WBRNjh8TUj5uI+sec5h/pQ8ZRySJ5sqFe+TxTvflggkAnuGwGwMPHzQ+SVtsp6RM5TkxYebp6b/Oi7PXkzTXgx6b5+Z3o98M+x8EcI8O3sI6BFXlszproXTWniF1qE084uOCjpQ2NsHisvt4fRiqd/XKebnq6SdP5VHiUAisD8IzEbyDvkgxu/Or4n0S5kJQ3v9ZHPh4NqhW3XSPD9RBP4/wMzw/g6dcowAAAAASUVORK5CYII=;" vertex="1" parent="1">
          <mxGeometry x="150" y="380" width="520" height="93" as="geometry" />
        </mxCell>
        <mxCell id="cFlkBL_1ttf7k6hPrmO4-3" value="" style="shape=image;imageAspect=0;aspect=fixed;verticalLabelPosition=bottom;verticalAlign=top;fillColor=#D3E9F0;align=center;image=data:image/png,iVBORw0KGgoAAAANSUhEUgAAANAAAACvCAYAAACM0FBgAAABJ2lDQ1BrQ0dDb2xvclNwYWNlQWRvYmVSR0IxOTk4AAAokWNgYFJILCjIYRJgYMjNKykKcndSiIiMUmB/wsDJIMbAy2DJIJGYXFzgGBDgwwAEMBoVfLvGwAiiL+uCzMKUxwu4UlKLk4H0HyDOTi4oKmFgYMwAspXLSwpA7B4gWyQpG8xeAGIXAR0IZG8BsdMh7BNgNRD2HbCakCBnIPsDkM2XBGYzgeziS4ewBUBsqL0gIOiYkp+UqgDyvYahpaWFJol+IAhKUitKQLRzfkFlUWZ6RomCIzCkUhU885L1dBSMDIwMGBhA4Q5R/TkQHJ6MYmcQYgiAEJsjwcDgv5SBgeUPQsykl4FhgQ4DA/9UhJiaIQODgD4Dw745yaVFZVBjGJmMGRgI8QFdlEpzRduBTQAAAAlwSFlzAAAXEgAAFxIBZ5/SUgAANzZJREFUeAHtnQl0nNd13x8IEACxg1gJgOC+LxJFSZYlWwsr2/Jup7bjOG3SHLfNqdM23dw26XHrJE7j1spyctKe9MRum5y2iV3FixyvcrVZtiRKskRR3HeCIEjsCwmQAEH2/u7HB34Yzgxm+b5v3gzm6kAznOX73nvz7rvb/95bckPIFCmwFbh+Y9aMTp41AxNHzcjkGX3O45WZ0cDukehCFWV1prGq2zRUrdLH5tqNZnn1GrOkpDTRV4qvZ7kCJUUGym4FZ6/PmP7xQ+b82Bumf+KwGZw4Zq5dv5LdRQP8dumSCtNcs8601G42HfV3mLa6baastCLAOyzuSxUZKIPf/9KVfnNm+EXTO/K6uTD+lpm9fjWDq+TmK6UlS01r3VbT2bDLrGp6u6lb1pGbgRTIXYsMlOIPOT513pwe+on8/dQMXTqe4rfc/1hj1Wqzuul+s7r5HaL6rXR/wI6NsMhASX6Qmdkpc2rwBXPs4o9EPTuY5JOF8VZzzQazofVRs6blQVNRVlMYkwp5FkUGirPAw5dPm4PnnxTmeV7smfxRz+JMJaOXUPNWNT9gtq74oNhOGzO6xmL5UpGBbv7SOCN7RvYq4/SNvblYfv8F59lau8Vs6/iw6W66r+jNi7Nai56Bbty4rmraGz1/ZcameuIsUfElVqC2st3c0fXzZl3rI0VG8m2JRctASJxTgz82b/T8pTDOOd+SFJ8mWwGPkT4hjLSnyEiyUIuSgS6M7Td7T33FDF0+kWyvFN9LsgL1y1aae9d82nQ17k7yqcJ/a1ExEK7oV07/D3N2+KXC/2UjmiHxpHuEkRoF/bAYaVEwEGiB/eeeMPvOfc1cv3FtMf7Ooc65xCwx2zo/Ynat/NSiQzkUPANdHD9gfnL8T4p2Tqgs5F28pqLN3L/uM6az8a4I7ubGLQqWga5dnzavirp2qO9v3FjpRTSK9RKMvW/NPzBLy6oKftYFyUBDl06Y547+ftEtncPtizR6cOO/FPDqlhyOIvxbFxQD4Zp+q/fr5mdn/1fR1gl/7yx4B2yjnSs/IbbRL5iSkiULfj4fP1AwDDR9bdL8+NgfFj1sDu7CFZJG8fCmz5rKpfUOji67IRUEA41cPmOePvy7ZvxKX3arUfx2aCtQXd5iHtn8bwsOW5f3DHRm6CXz/NHHFyXoM7TdHtKFl5SUmXes/6cKBwrpFpFfNq8Z6IAgpvee+rIsWjErPfKdk8UNiRfd2f0LWVzBna/mJQMBAH1ZGOdQ37fdWcniSNJagfUte8wD6/+JWbKkLK3vufbhvGOg69eviYv6cc0OdW0xi+NJbwU6G+4yezb/Zl6jF/KKgYDkPH3498y5kVfS+6WKn3Z2BdrrtptHt/57s7R0mbNjTDawvGGga7NXzI8OfcH0je1LNp/ie3m4AlQMevfWz5vysuq8G31eMBCwnKcOft6QhlCkwlwB6jE8tu0LeQf/cT48TKHCZw5/scg8hck3c7MavHTMPHXod8y12fyqQeE0A+Fte14wbUWbZ26fFfSTi1Jj75kjv2dwFOULOc1AL538b5p2nS+LWRxn9itwbuQ1gWT9UfYXiugKzjLQgfPfMocvfDeiZSjexqUVODn4nACC/7dLQ0o4FicZqGd4r9YsSDjq4hsFvwL7pErSif5nnJ+ncww0fPmUefbIl2ThivAc53dPyAN84fgfm4tSuN9lcoqBpq9d1kCpS90NXP7xCn1s1K945sgXzdR0+K1hMl1LpxgI43GimJKQ6W9ZkN+bmh4W6NaXJEFy1sn5OcNA+yWTtFhuysk9kvNBUWr5dUedCk4wEE2pXjv95zn/oYoDcHcF3jz3f835UfdgXDlnICLPzx/7A3EZXHf31yuOzIkVeEFUfOxklyjnDPTqmT8v1mybtyNK5F+J/uZ9cNH94/L0oCG47hLlNJupb/TNRZsUR8UaKVUj/19iSiSpbOmSSlO6pFz+lkrR9rI4VWxuSCvJGf3DOwU6fVZAtjf4TyBPPC4G1/+JgWe0NSXtKV2gnDEQm+GnJ/6LC2sQ0RiEWaRbNgxCN226HNRUtJqaSvmTx+qKFlO1tNFULK3T7nCxZaBgkqvXLt38Gzf0aeVEvnx1QJ9PXLlgJmeGzayoxHisClklfunkn2rDZBcKN+YsneH1s/9HW4tEtHtzchuVLyJdykurlWHapUN2qxQarFvWaZYtbQgs/wU78sq1MWGki2ZAUM0Xxt4yo5Nn5LUJZahCZKYt0j3vvrX/MCe/q/+mOWGgsale883X/3HBFj8sEUlTXlplGqtXm7bardoCZHn12shSl5FAdKI4L8mHfeK5oo3L1PTIzVhKYSA8OJw+cMfvm+aa9f79HPnznDDQDw983vSOvhb5ZMO+IbbLsvJGUS/uVD2d/qKpFBOkoqqVEqhqyagEB4PYThCbqOTm80TfoeAknfd6hl+RONvLWjsP26kQ7KWWmk3CRI8nmnokr0fOQOdH3zA/OPC5SCYX1U1oyltV0SyS5m6zVjpck12JvZOI1EbB8Jc/mhhPTg+ZqzMTonKNmyszo2rnxDISjLNUUp4ry2pF9atRxvTUwBqtbMP9kjEU17t0tV+KsfzUnBn8qRkVpqILeb4z0sOb/o1Z0/yOREsd+uuRMhA/4pP7/pkBMFoIxIZF4qxuut9saHu3WS4q20I0IxJhSOY/MHHYDE+evukMGFCmuaYbeqErGPXS0Ya+UuyoamHcusoOqfi5yTSJOlMl44GhcULEOiLslS9fHTKnpb3lsf7/pyGEfO6ZhDPmo7v+qzpn7PyifIyUgfjBCIYVAuFJa6/fbja3v1c6EGyL+wNyYCBt2MhIiBlxPQNXor3k1ZnxObUtiPVAfURdhJHoGscjnj2q3cSTTJ6d1KtMdHrwBfHmDQY6niDmlOo17l3z97WTeKqfD/JzkTEQP9hfv/arokZcDHL8kV+LjVovXrTN7e8za0RdQxLEEnMlTjMinrCBiSOymTdrmw9QxfQr2nfuq7FfCfzf1KLG49e9/G3C6DtU9cO5EWszwdQ0ITvU9x3x3r2ZlyWSOTg+vvsrkTlp/D9WZHGgEwPP5j3zYHtwum/v/Lm43h8YB7ticOKoYb6kJ1dXNOkGZtF5j3hNFHR5ekDS4QfEebDXNNduMGubH5LOcbsk1rRcmOgWIy0trVQvIYfCsYs/0nETW7JOjSjGmu09rsyMmSMXv58TKRQJA7Gx3uz5WrbrlNPvE+xE6mxoe/Q2zxpetOnZy2rXHO9/WjyMrwtm65LaIrUV7aZWmk2xBpMCzR+dOhvpPMitohzYwPhhcauvMRta/5ZZKVJpWXnDPEcHtsTOro+p6510eg6BfGKi/ef+2mwSdbpM0BxRUiQMhI49fuV8lPMK7F6c1g3S0n1750fF2/PO22wdgpjMzZ7eV8WTZqlMTndOdiLm1wV5wck+PpWbFiyzN2bM4KWj6n27OHHQbO/4qDgd1tmh6iPjBSJTVd5kDvR+w5wb/ZnAhfKjzNTUzIj8Bk+ZLSveP29OYf8jEgbiRMtHwt4hlnOndFjraLhz3hSQOjALatpB6RJBsDKWlkowtb5qpZ70V2fH1SbKdbYtthmqpIedMzeDq3j2PLc7j7RlxPmAynpm+EWVprFzc/Hf/A5oCbF2XphjDZ2B+sVdS9G8fKOyJRVqu8A8MJGfqFs2OnVOGOdbWuTei6f4P+EFOXExN1V7pzw4NiRArqlC4kigIxqWdSnzDF06rgyFCxzIkd18uOTv7P6kOknwnvola67nkOj+aAIE6InHRUWhM9DB8/nXgqRMkNFInN2r/q5pqOqe91sQx7kwftC8df7rSaullpZWqPpWt6xDNyrAz9HJaO2feQO/+Q9UyuU1wIoq1XWN6tkrqtp6sY02tL3LVIv6ZuNH2H1bOz5kmAvqEQFf14n9VjAMBP7q9NBPXF/zeeODeVYuv8fs6v47wgAdc+9Zle2UBCD3n/u6IKEH5t67/UmJgEXrTWvtFrWZkD6jkz05TwYjHgQ+r3FZt6Agbmj9iTGRpCAUULN53CogzeXibLBMhBTduuID4hApUxf8lCAlXCYOA3CAHFxRUKgJdbhyb4j3KV8Im6etbqswzy/exjycvgclhvPamb9IyDxsUGISrRL3AQ/HI0QW5cjl0wZDPpdUKZ43VDdSJnAODF06IUiEXh3SzOykOTnwnMSovqYqN15DS8wJ6bSh9VG1i+zrrj6ickZFoapwxyOcSLYLhrcNW2dn18dV9bLX46TGe0YAlEqpYNfiETYTiIRtHR9W71aZGOG4VD339aATdiAqWZ0wEDlJ41OD4vg4afBeWQLSc1Z6zsLwd3R9wrTVb5tzLlSVLzcb299jroq7/oS46hOtg71WLh8pyHiXHIJWioY5ltAYaFCMUyLx+UBIjiZJN9jZ9fMKz7FjBoqDOoB6c6z/R8IM8YueI7laRXLdu+bTt9lMCgIVb1xtZZusx2l76cgfGSPu+LrKFaq+YY/Fs8mI/VAFh3HvEF8dEhmGg4gVAV1CWtHc2VUXN+o1c4j1nIax6KGpcKhv+UJkhaKedDTcMTdkJA+BTxjn5ODzchJL2rUwAp4q+4e9xF+NMMfqpgduYx4uxinIpl0tiOFcdmFDbcN5gE2DKmltn7kJz3tyQzfg/nNPKMzH3y2hsWqV2dT2XtMujMXB4ypFtf9Ck0BnBDafDwSimc2/rvWROXWFcWO7YTDDOBsFaY0RzSaEiSA24ZSgmgUuKoHH5WZF/U59Pd7/NKBaSRZqo6g+UsfAZ1/E+3wYr9WJ9MD+8dS3PnXDJ6twYyVRaWm5HBIVAgfaqOvDgYCqu7blYXE6DGquURjjzfaa5D6hPtv4VrbXS/T9UBgI9Q27wXWiiEebeMoIvsVKB7pHk+0YVMYjTLa+dY+c7PsVE0jsiMQ2akOgKoYNm6mVlIfam+obvw2YvIXuyfu9Iz+TgifLzA5xeyN9YCCYsKtxt3rtgNDkOjgcb58BpQLCFLYaFwoDnRl6Md6cHHutRHV6sG2ocH5SD5SocPqfbG5II/c3n899VrNBxVqQTYXNYG2Fufd9T6oEVAoIdVP7Y5r749UvOKq5UTyfFGOeGJNXaSd5Vqrvsik9RWpig1WKBMWOG5fyyakecHz+3MirqvoRE+IggPDMIbn5rb38LvdSxUkezEsG6hHx6TqxmdgAHYKutgTjcHJNyIYmdkOCGyBR7CFUthnxTlkIDN/Bc7dU1BsyRWskfQDVBnUtlrguWDg+DzyGXCICmp2Nd2k3NoKsuJRBBVycOKTSYVoMdWWmANQ9kv4AtSJxyUPCucM9UyXWAEZBgq1teUiktTdHYi2kS2ArkknrGoFEN+s+E+qwApdAkxI8dd37hl1DkY91LY/MSQ3rNDjS912F9M8IiplNj82CdEmm7sAYMMSulZ8SMOb9wihezQIYB1WNCjkj4vWqLm9WoCY5RABMsav4bo2gtfFwAeQEmj8mnj+6kV+Qlod4AWFqVfVEpcqEsL2QHNgDlyWehcRL1w5TwKw4VEjP6Gy4S8btJQmyhqjsfZKqn+s4V+zaELsjgN0geMSwKHAGYiFdJ9DGSJ+6ZSvmhoq0Yex43WKj7X6pM/cF3xM246Q4FEhM6266T/S9JSq9xgSbhR4OXIY0BrxWFUtr1Z3cIPYEPyynOF46PHtICFQjJEa7xGCok9AvCXkwU7/0yUH1woWcyJ3uG9LcU49BpeacbHwOCWwfrpMJDYuUPCuneoMgGazayxqSIgGDjd8MymZy7bC+Qw2OvGIgBuwylYrKBUJgFRv9JmHEAw49cuEHtzGP/cxCj0T5yfzklEfqnB3ZK3Xv/kpPe7vhkWJImAv8iXSBoVDpaiT1GtR2R/0dogZu0ppx4M+QUiuX3y0n/p0qOWBQAp0DAkpFxUylug4VT2FSijYyDmwff/B0oXn530fC9Ar6fHnVasXOlckYIewMUNukhbsWGzo/9obg+T7on0agz4OXQHLiukxs1tXND+hJb8fJpsZQjpeSYD+T7JEiHnio2uu26ykPBpA0h4VOZBgKlDN/3PvUwPOy2TvFJb5DUQ2N1atU5cONDIqgtrVNbI77NHEPjOEFYSgkn4cKiG/EewzaqsyIrQIDUb00U7KVfQDZgrxAXS0XGxCJPnTppHNubYpMInmtWp3pvBN9L1AGwv5JDrJMNIxoXifo2VKzUU96e0dsi0FRTU5K4NdKCvteqo9IH6QH6hkJdnilzktWaroEQ1HDjT8yW1GP2oQpu8TZ0CinPqkInPo4H6izgK1JvK1n5BVhpEG11/AX+onAKbYXhEoIE2Vrq+DsINIPMNXWhGD+5+vfUMQ2aqYrxFhYz1hUfVDjC5SBKNXkMpHGvELQBv6ayhiaVMrJ1C7wIDLdc+5ST5q9pqpaNmtBbAVGHBYQKgXVgdQgfVA/STmAkUh8I06F8wEgKJVIVcJo4USjNhXODarzQNSduyrlfslWimU03k+V8MrRq4eiJdSIgFhTYkMw1tiUOwzE2CjskicMlPuEMRYsHnlq1uq5jc5n8LCxSbNxu1PcsHv5vWpnIM2wpdC7gyOptyD2Di5ZNi2qIvYbOS/UWsBWgrmwS7CNQCKziaFOQYQTvEUKQXweyUVauefGni+t9EMp/g9cH901SNmwbm2uzUbFy5etlEtxGCl9DEcMaPIwKFAJ5HLmKTAcjF0bCGQxkRbUjo71uqW60Oq+FuPfJnARY8GTl2qQMtX72M9hoJPVOiwoavKScJmvbLxHmRdGYn645zH0cWSg6uEet4TnbJsEQ4lVHRZ0OepcpoRqhCNkw/S75lI/iK0BaeLEdyn5DpUzLAqUgeKhe8MaeHrXLVEjHD3dEgBJjHzUnkwJZlwlapUCNEX6jIirGnskbMJWQ3KOXD4jFUZfUFwaAU0cDdhJ4PoSEW5yxjwq34UJk8W3El3Dvj4mMZZxkbg4ZiwKgzXmujhSsrm2vUcQj2gFeFqJXQVNgV0Rt2qm7tGgJxV7PXBunMzWFuB99HhiK6CSMyFUQlIgOOX5YZA+4MYyvV4mY2CD4kjYJ+7yl0/9mdpy/AYKRUpyQdaB2Eg81ESSr932Fmt4UdLb+e0tcW3UOjxzrhCSG+9hGBQYAxFtd5XwFDVpHQAvboFbk/rQlG3KlAhMdovxjoqE7aPSB+hIDgg3Nl6/vae+rPX30ASSMRFucdzbOECyJewt1DXWFMK5QSwLSegShYWOCZCBMjvJw15kgpWoNja9mvtxIiEpUEEyITYgrTWwPyD1vEn7EKLxuSRsOZAUOBKuSBnhRMT8SWVIF84T73qoR+D4/IXxqeiDJGLtXaGxyXD2Z2AzDMtwzvYHwLgmOAkQ0hJATQKXPKZPHorbC8bWqScPLBgQFxcIaYQEmrgq6Qqx6PGbA5wS5wkqTRBp2TAOCAlc5JZgHiQza+8KXQopvSYwBgpLx8z2B6BTHLaKNXLZVBi4nmcmfTcu6iBgSv48VXBQjWaXiuYjEXB5XxG7LB4BYsWZ4AVBPeBrvM+l+hrqEfeyDAuciTVn7V2hsA74ABlowJW1mjcOdHHKNFmaFQ/WhHSIIECZLuG2xhlBDhG6PsHOfjGigQG5RECD8ITZeBAbm1wjDz83o8BSSuBu6/iIusCzVbUAqHKAsLaWWHOX7KCwDvjAGGgyjfwSu8jhP5Zo3McfC2Ej4QJOv9JmiamXtOyNEpCrp6qnuMHBfh29+ANFSIc/l/TugHqGrQOhslGS66UTf6oBWRiJFIfNwkS7V/2SFlLBrsuUiAnhUmdtLbHm2J5BOCrsNbN5TCf/KZ37BMZA4KxcI1QJCn7YOgaMD7uHQGS6xGm6UhAHXtC0RFvKA+gckC4GLhLqE4l+EEgGkAMnB58zb/Y+IbGjn2jIAaZhPjs6/7ZCnCjFlSkNT56aZ1Oy5vVVXVm7yjMdT+z3PKdJZvlUsdfy/zt7P6ZcDZcpMQHXCAYCN2btH8ZHVmm6HRI4RZulk8F6CVAS3/CaUh3UqquuBAtj157Yl63zQOAVVzuE7bf/2hNq9K+T7FJyo8AHkubBPGnN4veoxV430b/xaE4Lzs4in1lzoEOkU0ybW3GiRN8P/3UgUZcV8BvkvQJhoGTVXYIcbLrXwmYhOc1GoFG7bgEqU7sa9gH5NOta9ijOi8MCLxfgzaksoDCp3T3zT8EQpSXlegG/OscL2Cxk3sIo62VetYL6bq3bLOvk3Y+AcLqFQq7K5rRI7zK5L2sOc5Ik6AoBpAUxHyQFxEAunDC3LwunIGBPSySgkfRFi4/EJN2w5fRGBSITFTWHXBfUN05XW+/b9cRBAJ4W5MnB4TfwmTs2AQmEYOY2tT2m6hZg0C3tszLPWfXipcNE3tpKrpGssW1yxWZ1i4GC36eBMJBLyFs/Y6CHU/fNEpuIU8jL5LSv3noEnsNp3F63Q1DP3foGc1u1/O2iulXdVN0OSOLbjzPOHbp1t3CfoY5Z1RVGiHdo4Eg5KUl8HAxbVrxP42Ugu1FLUfsowZVorWJH7zEQGanTc29hN7JuSHEXVN3r8lsGTYEwECece1Si0sMmfDE+NhXJZXTX9ly603oCs7n4gZdXr1O0Moa13Xx2XtgQOB9IdHM5adCO11NbPZ3sJsrGvjXv0bq8mS8lt/CekWnqqX3XpCbDYWGKhTNYWT/UY2trcRMOMJIYVTdMP+Q2b5xB/GM2hH0aDAP5/P9BTDSIa3h12sr1R7TXQ6XpbnqbFk3H9Upw7dKVfoX1IJ1WCuOgqsUjGO6cwHWyQW/Hu25Yr6F6EqtCuiBNbJAz3v1gIlsKd1Pbe9Tm08o7SI7eWS21lQrsB2+fH4PH/VHhvKpG8e4c7WusQ9BUsAzEQvHj8SNa4lTWjVVeIYdiiyan8Z7dZPzQyYgyvqlspGTXiOo9nbswEePFQ4qtk4yo6wYTIaU3SRcGSm0hiUB3I1nAki2khuGd9K8PKjGSTaWhAxLIWQbC2+UciUsJyIp15TI+6hUQkWYzoZ8D5+cHhqlweXtqT/yZlItjgfRpApBIL7JZs0mLjn+XYF/lYOA/VGy/ZEh0F4+Jnpb1KNd64Msk34k8I7ysh/q+o2iDRN/ldZV0cshYshLISyG3r+bukd84aApEAnFq5QOBVqbPD6nP1GID9IirlXhF7bJ2RRpQEzseLRFGa67ZoN266asDmhs3trWl4n0nH1/DFX1cajAQ76JoIpg5upODdQN14dVUSDSz5BI80beiej2MfRp/t6Q5I0R1PhCnMLkrBBNtmi/Sk8xSUpHvWf0rpnJJfdypcHphYNNACzQD2awDl44pFg4w5ZSkDyCZwlAT4g4oxBcnpPAizhLS4JFAZNzCRLi+z0qJ3yBQ3CEOP+Gll4SwTwNhIE7n/KH5p6TaCGr8Jja08SzZk5cKonj2SBprlhJZ65ofMoOXpab12AGtV0BZXlShfN1k9ncEL0iciPlSa4EadfRQIs+ob3z/PFvHfsf1x1jPahDjDYSBKhxK3523KDa0Pu/F+f/ARsLjtHXFhxS1gJSi8CA2L8X4sJtGpa6YFiqX12AcwKQEaFFzCBZS2omiiuScUNqLoorkG6EOefGX6C1ofzlibLtk9t38FfH+hcOAueBYQM0lSY4yVhSXRxKlk7o+/8iKd7doXgsjvSIQBiI92EXCdQtDWOORH9K/kWCeFVIEAzBlc+0G/SxubdIACLoBh6FEE+kKnMhsSpiG2tBUD+U7ddJ3B2aiLhpdvWlkRX20/vHDUmBkr4JN2XC4eKMk5o50Zb647y06IJ0xoI7S9RoVt6Lsg1oPm8NCoUAXvy+Sdmze5Thw/J5M1l7HMe9TuftH0DAeZhIIA7FB2YwLuUojXTrxQBEABGJvFw4HgQ2soppQEIS27reY56IYyk+po4GIOp/3R9YZP4zQP3FQT2cKNZL3AhMSwa8W+D4MhuFNvIla2ZT6ggGpWWA9gFGsA78FHSaq5LcpkwZZmUJqmC+tTUhNWC9F5PHM0a6SjFdQ3X6bD2+m3yOL9FZVVpjZBQrjoA+EgVgc3MJOMZCMCduFH7DCeABCvDAsIq7oTpES2zs/orEgTkp6Ah0X5jkiJ6vFgMUyj38ToOKgovEH5AVJhORBzaH4YaX0AALGgnOiRbx3oBtIcqMS0CVpgpsJ4tl//4Wes7EtQiQFTTbp5UiWo1kVoFrmQ0Uf4E3Ehvz1xEEeWGnPBZHijMGvTia9UYhvxo4tqFsFxkDoyWFl/WUyWX40mAc3s63MibeQTtVAVjhN6doG89CDh2IcR8VoziQtA0Yj3waUdqW4gFcIlg7phlSy6h0NjGEkDPBTUsuNtie41f2Bx0zmmfA7GgPyTn68T9ka0NhDx6VYCeocdbqBQ42JJ5I/e+BUyiHq93RxoPIbJENBJBx/wG+wP8OgwBgIEd8v3dXcIWEgiYyTo2IJNRMpgdcQVY7TEQcB3qbjA09nLRWQSsSGNJ1aGIXTmiKGqIiVZfU360ffrWnhNME9JSkRNN7C/R00qQp3E3VOQBP1KhtCosH0MA94QtTUlcvv0ZyoEUmPR/Isk1JffkYlAMvcXJBA7M8wKDAGIijpGrGJ6BhhCZuG/CAI2MmweMpgHjJLk6lr9vupPlpGImeITUf5KyQSbu9lsvGo5Enn7yYBr56QeAuGOqqg355I9V6JPjd7gwbGHggU1dUvGRJ9Z6HXkZh4I1FRmQ/eSFRTUkSYs1eh9Fb+DxAgT62P3gsZOxfGFgYFxkBhDTCbSYNd40f3E+oEMR166xw6/+2UgZL+a6T+/IYwxpA4Jn6omZ4EJVc33y82xCqNr9BdAc8dEup4/zNqTwRlG3FA8AfhgcvUiRA7V63LPfSCBpWJDa0XtMKQOEpw4YPo8Es6vHR+dHbstaL8d3VMI+mg7h0YA3EauUbYF6hUflc2J2KPoKrf6v2GqG9nIxkypzOG+OEL39UaauukYwLuYNQKVCEgM9hmh+R9EN+Z2GGxE0F9tbYJzIMrO4i8HPKjCBqfF1wghyb5U6AUKPGLB9I2smLNQbtbKRg7vqj/XS9OnjAoMAYKsw9lphPHxsHIxRXLRoVQ1YDhRMU8/rGjouG1Gj3TIy5gr7sCKhDeLbJBeaRNycnB59UhkY1KBxPiQGEj47InsRD7RN3K/kFl8Jx8qBMiMVHbkaqUOEY99avxrDmxs2k5sFwg5/sDYVvgyraQFxcWjZMfFQqcmmUgKs/Qj5THoNSldOcKE1PNB7UHzx3RfRAOjJF+PqwlGxSnTKYbXuFHAgAlFgPqHKeJB6ZcODkulflQ0rdn6GVBYGzTccOkVvrwfdac0ECQtmUq44r3GebN4RQGBVbWisGFxeXZTByG9hcW5xQGFBqWSE91rJa58di9ee4JTa3G4QHz4LnbKn18wKDhOcyEkF7YINOzl5RxQEoEZQcxHlQz+gNxACDp/czD+6y5V3sv9w4EuvT541OMLygKlIGaRC92jXClokqgykAsJLEMf7XSXI4ZCcNGPHD+WxKH+r7YDUPq7gYqBD6vSzx4nO7pEptaGUjmz+bG9czB4UmhdK8W//OXRbpjT8ZCenDUqPom93aB8HaGRYEyEA18XSOcBpySqBSWUDWbpM5bkCeyvXYmjzg7AGeCgjgh8ShUH2JVoBoowdslre7TZSIkl2f3ePEfShJvbn+vpqxXCEoiCGLc1JGbkCRFe0BxXaQ+8/Fc2EHcKbtroB6HRYEykL+FSFgDTve6/LDgtoYk5cASNgGxjLCCa/Y+6T3i8h7WuBTeulEpVIi0JImPjY+zIVUmwpVMnAbvWLVIWwipS0tIgLOr5TEoJrJZuX4Q6ahAfECl+JkqvbUI9tN5w0D04PSXkQp2GTK9GrXcRs3gxLE5bBgbk5K/QG1cI9zdJLMdk9gRpzhoajxc1CnQDuMp2ESEFKhlR7FE24UONQ5EApJ3bcvDcs1g1JpWBdE26zhZS1RH+rh68bfc2z8g6hslFSMsClQCMUjyYlwj4CTo5BRZtwTYE6iNv/CifS/XjyTkgY44LNVDKdqukkjUENALKxvvVSgQ0pPNEUvEevAyImH5XizxGiEH3ObYRZSd4juZEN9VL5yoxJZYY0ph4cZ2gdqk3WS8dQhqbIHFgeyA8Bydlki1S4RHiu5xpBZUC14Lwv7BkcBGOjv8kkvD1bGgzp0UDx22UFnpY1rDgc0A4/MeJzwnPVAh6hWQfs1hAHAW6BAqWyIi4Kkqobi2YdZpSflgwwO9IfCMNzCV9PQ6CaLiefXbkqwxNqcL7mvmz34Mk0JhoDAHnOm12XSU40XqaLVMUY1A6LLAvG6j9pleP4zv4QbuEdApEoMi+biigf1AxHlARGN3wkzV5S3iAm9QFRomsqpbvHFxIqPKcV1ULmriYfBfFenBOpEASAF+VEjQBJS2inUIYGfRTJjgqU1SBDrUJ2vJNVyhvGMgUgRop0hhCpcIaAuQfE5IUgsgNhkGJn99WbS7D3eemkcrqbTz1SziWcQ3bPSfVA1/LIaSVokI4x5XMy7t0rJyUy4qXBUg25vBRpgKVcw2zsKhMSLtS3AOwFx437Cz9DCSHCBLdGig3aWXxm5fzd0jjhK8j2FS4BKIwaJCHOx7Msxxp31tD4/Wr5mhuIcBWHISU94KrxQ2khf4S/vSoX0BpkBSUI8uUUo2r8MQQHdQw4DvoNItFYdBveDrKkW18xNxsYGJI7rRYTgSDEEp4PzBva9/UucBVZe/69c36bVxrbNGoCNQ0ci2xUNopQ918nrH3lDMH2vtAlFp1n+ohDGmUBgId6lrDMTisXl0A4hhblUh4iWoQpymZyTr0oUfH+Mc6QLzEEgF5ZyMULN6qNsgHfMIamLL4PLuFPUUz52ipGWebKZx0QxIHuTzUIV8DtWQ05qEONQ/Aq54KW3tPH2vtl5tRhiHBERsLL+dNSprSto6DOwKsQ/DplAYCJg+JxoGqksEc6CGnBGnAd3TYB5OUDxaayTPH/UON3KuCJUKlQMJiXeL5DU2qb88cezYkD40FSZbFAayBwCeNWwYPGIcEDgNYAwcKhwkFgeojxRZvUk4BJBKVZL2ruBWcbQwJhiaegikX/DnJ/B2JAjiMcwGAOu/ZrbPsdE6Gndle5kFvx8KA7EpQelSydI1Qs0hgQ2ojDUwPVtos+TqPCCBzO/dZjCHPQcYB7sRpqG4PR2uK8UhgIqJrQKTwBDx1BG8XdgqSCHLPIyX5xwGBDTxQHKgcVDUiLOhTpgB7128tjRcD08cf6hsOFio94DHEsamXjbX8Y+FdHY+54rrmvlzYCRSe3k/KAqFgRjcOgnWuchAbCzSGahLwKawKG08WAQfRwUESV23KAimQGViY3Y13K2P/BvG4VQfv3peNzHsgLsdB00sUQUHiUHRjFhMmvfZG9qBgjmDuysX+4YYEdJkIWnLWgHLGbh0xNADlTQGYkcwkCXuibt97ErvPAa27+fqkWBxFBQaA3knVduCP1IUk4y9By5ZAJy9I6+bNS3v1A3LpsWtSytHXLic2mESdgVICDyC2BWc8njWiMmgeqFOWmMfBkKiU4OArgkUa6fijXUAgDhoGd+oUiieCkUpYtIPiO9g1zSI+op6thAD+ecPg5JJC9rESh+kI2vYKwcOaqErxNriQIiCQmMgFpncljd6/jKKeaR9j8tSQJGu1aQlW2Q2NhGq3bg0Ez4o6d5heOW0MpAEHymrtUoS0RrEHYwKiZpGUcezUoyxb3Sf2jXEXyxDHOv3EtRQv8Cd4UrGQUBVVZiPA4tijvGZ4oZK3XFhIuwXmBBGulCyf+76yRZQ7QmpfQe2zi99iD+dGvqxFp+0mLhk14nqPZonJ2oSEPQYQmMgBkrpKFcZCP2fpDZaHKKW2OKLRPRR5bApTkhRkOBSkksUKYBBT2FCgpDEXjjFUYOIn5DO3TPyiqhKQ8og/h8bhwx2BpITCYSdiWTBuAcN0FJDre71c3Ea/3d5ji2EFGqf3amoBeI4uKxh0mSEfYY3EOZB9bNua6Q4FVwHZQ3j2VLJrhn2exva3hX2LeauHyoDobNjzFGZ00XC6MV7RD9UNjUqFKoc3ioKqaPy4HDgtM+G2IQAGok3ITF4zn2omjqsNterYtS/JfbOyaSICGwSP0QGFY8OETggUMnahDk9T2L/bcNFxcIpwMGAqkqtazyRU2PJGKhEmXO9rEVb/TZdHy7sef6Oa6dyYk4uEcgMq1FEMa754e0Q7kjpXFeJDQli4mj/U1oUA2kAwUj8COTiAI7NFGzJtdDHsV92dn5Mu2FzmkPYWRRu3ycq7mFpXkW54HThREgVmIjO4RQNoXCjlxV8ezl3VEECoNhXzLNOJBCJZqhn8Yg5I902iBbRLZ5BWxIZhANePxwHFBJhDV2iLRHvt1AlEAvbIdVnUBf44VwkNhbldved+6pIhTIx6LfpMLFLOkTvx0t3oPebouu/kJYk8lSf9VoFFakDIgCpg7pGrWkKhxC3yaYCD2NHjcL9jfcO5iG9IBEaWnsaCcNhLzEeanrDBIBS51OJev0ofcwaEGi1xO94sO/bUhTyeQWc2tddeCRmRigiSgpdAuFMcFkKsdhsRGwQ0BM8WsIQRe+nqdba5gdFMt0qGmg/E++RgiXdUtfg7lV/T2tIW1uHa+/r+aow69eUabNhHnvfSSlqCMOAUQPBgDqaCLmAGxs1EUayXkdUOZjdEm7xVsEGIn2Jk/mZh3RzikWeHXopK8a39wr6cfOKD+i8gr5usuuFzkDcHKOOuIPLREQe7xctIFGNLKHOYbNs6/iI1m9jkyYj5rlVfsg7uz8pp/hGcTVXKbyFTgavnv6f2j4ROwSmDYJgiiGRZMBrOKzAv5EPhKMhHlFKeFBKaxFn4sQGSGvrRsNIHQJp2tn1cbVd8UpaQnKeEqmJ53Ihx4P9TpSPQJe2tL8/ylvqvUo/LxT2XTntONkwyF0mvElA8dmUxErIm4EYPzgxbIIyYShiRLH2CjYDruFtooNvkMQ3ig4uEU8ZzHhEioXAmETsY78XxHqIa8FLohNGXypSknJZoKeZRyzBODAGMR0vN6pE1OsedZgAAt7a8UFVCZeW3WIe8G2nJfB8WOaB/eOSy9rOb0fXx4Tp77L/jOwxEgZiNhQMpMRtGBsoyNUCVUxTLTx0eKms8Yz7lsBlfVWnqRJ7g1MYuAvE4YBzYGfXJzS2A6oBTxUesQNSARWDmyh+WAY3nrlaQQcAkIXp1eMmDGTHN399ZBQyNuJBVEOFmZCyuMDXSfxLHQti/1nCQUHpLVAlpCuENQd7v0wemcPDm/51JNCd2PFFxkDYE5zkrkshFoiTG8mBixZXvE37homIyJOJSfBy5jpJaBO6cXfKCdgp4EUYjhgJ89zf+4Qa+f4OEbE/QDD/vqHePpgYycf4KZxPVdZ4RL4O8a7lNUCZ6vQ7eB2rK1vmXNV8Dzc+xe+PwDxyLReZh3EifaJCHnA/P92yHv2vhvR8c/v7NMIfP1oe0k0zuuwNYZ5RTW8gtRn7B3sGws6ASVY07FQVCAQyHjDN2ZGTG6bDVqDTHW7joGydhaZB5SFc8oxTU7slOAzqIV6Qk9eQsqirIAusquq/BzYVxU3wFvJZV5kHkOyOzp/zDz3S55EyEKrC3at/2Tx75D9HOslMbwaQkiAwTATz4462EBGQvriNCWIiWTHAafNBWgGqqm35kem90/0eRj73xMZB1fR69ZRLw+SZeZci7kMBTALHtRXt897jH6h3MD5tX84Mv6gxJhdtHjvwXd2fUjXU/jvqx0gZiMkBCXlL4iq3xx6innpq9/MgK/vFk3ZZEtUmNChq7SJlnFKv8g0bj008JG5iTvaoT2w6i6vaeW3Mq48gJzPqpnWVU8EH3F2XAFK75CDAUxfbtRr7r1/iQoclpYP4kkvpCfF+LeKLVCrKJUXOQEz2vrW/av7mzX8lzxLn7edyUWLvjZE+JDGc/VLDmsxL3PLAYfykXjgxzClciGu4d+Rn6kRAekVBFAYhFnRlekzVMqr3gO8jO5XYEJAqkN/Ybtg/ML+fiPFQnQhs4EKQIv/3cvmcfRQ7j6jHkxMGQk9HJTp84TtRzzfj+2HLYEhj4wDKBOICyoI4D4RthDcIWwh3Nv1/AKsCAKUqKq7lbDF1yQeP3TauUpLPkXZAkfpSqY0AUgF8H6pd7IZD5UNqnpDerqQlID2jstuSzyf5u2ubH9JAb/JPhf9uThiIae1e9UtqpLsYlEu87Dc0xYEKPhjWIABIBcf1a20jPHWc/BjmIALYvKhWADkHBDIDepk0gKA3KTYYcSexYnT4SJqNUs2U1xlLLOOgchLQBVWArYMzxKp7iefvxjsETe9d82knBlMi4MCc6VFkhT575D85sRDpD8LzxqGHAxYltydRDxpquOFaRkLQr4h4Co22wJVdETc4bm5SE/xI62TjgSmwb7DFiDnhDFhes1ZTwXFs2CzbRNeg1DGSkeqnxKpg6HClY6KRZPb6/et+TTGGmX072G/llIGYCh45AnX5Stg+bGIwcysEO9bVsFsDsLEnvp0fJz9xGE57sk9n5JENjQOCiD+G+8z1K4qYtt/hkSQ6AK4wDRJFK+UI0JU4DszEa6iQie4LApu4DtJT7TNRK5FAqTKtfyy5fI5q/O5tv53LIcy7d84ZiE3zjdd/LUHUfN5Ynf4HUoEENeA+lMgiWxRpYD12iQYPQ1HIUB/FzkK189Q7P5YNJQFWlf8kFACTqMomwWlexf5KRFQLRd28KE2VkTrUNgBdEA/mk+garryODffRO/9EkCBeeWYXxpVzBmIROBF/ePA/uLAeWY9Bi3yIjg4igOg+xQdJMYCxiINFQZ59M6i5QthdlL0iyEpcK98kjn+9Htr4Weks8aD/pZw/d4KBWIW9p74iXdq+mfMFCW4AN1Wu0hpFKuCZA6umkBlhLqQVKlcQpP1QhTnwoBEExeUO6hoVDdXQUwmzy6oNYpzZXIOs2Hdu+PVsLhHKd51hIE7N7+3/DfFsHQplorm8KGqWV7AQ20UMfylaiFsZVYTnpBXQG5XYjbVlbO0BO258PcSUrO3kgVkBtI4o4wCPopYC2LxbdlR+M42dOwUmP7Dz8aQFJu1no350hoGY+KQE876179f11Ix6IaK8H/YL6hxMVVpSrhsDxiIRD4gQqAF/xzfGBrLBevNQw5RJxL7hOX/YNBxC+RKcTnW9cZB86I4/TOjhTPU6YX3OKQZikn2jb5ofHPhc5FCYsBY41esipcQboIyjzBPHMYAn7QboDZFGUUOFUp1H0J/bs/k3NUQQ9HWDul4kGanpDBaU89vX/aN0vlIQn4UhiMXggQMtbSWL/5H3+MxiYZ7dq37ZaeZh4znHQAxqU/tjmkLA8yItzhWgrBg5Vq6TkwzEot2z+le0MIfrC1gcX/ArQBwNtEE+kLMMhBfqoU2fFSyZe02L8+GHzdcxkqu0Z/O/m8MWuj4PZxmIhcMj9eiWz2kw0vWFLI4v+xVoWNZt3r31t8SV7yHcs79i+FdwmoGYPnXJWFRgMUUq3BWg4P17tv+OYvvyaZbOMxCLSXrAY9t+VwCbq/NpbYtjTXEFSIt/747/qAHlFL/izMeciwMlWxmi7GDmgOAXqTBWgEKQj23/Ql4yD79AXjEQAyYF4KmDvyWQn4P8s0h5vAL0Xn2PpCYslL/k8hTzjoFYTPJpnjv6uLYmcXlxi2NLvAIUtt+z+TcU+5f4U+6/k5cMxLICa9l76svaKcD9ZS6O0L8CIKsfkDiPTYP3v5dvz/OWgexCHzz/pHlZGKnQQJR2foX2uKv7F82dKz9ZMNPKewbilyDT8tkjX9KCHwXzyxTYRMh9eueGf+48ti3dZS8IBmLSVL555vAXix66dHdABJ8nhge6gIL2hUYFw0D8MOTLvHzqz6Qs7fcK7XfK2/msa3lE0PWfkezbWx0f8nYycQZeUAxk59czvNe8cPyPCz4xz87XxUdqt8E4rtUwCHqtCpKBWCRKRcFE56RtfJGiXYH2+h3mwQ3/QmtBRHvn6O9WsAxkl/JE/zPqpbsqNaKLFO4KIHV2S/eNTW2PJS21Fe4oor16wTMQy0lF0FdO/3dtPRLt8i6eu61uesC8TYq901B5MdGiYCD7g14Ye0uDr5TVLVIwKwCWjTrVXY27g7lgnl1lUTEQvw3loY4PPG1eO/MXeV8NNZd7jdLCd0lQ1CtgP79VSi7HFfW9Fx0D2QUGT3eg79vaBJiKnUVKbQUoM7VVOpFvl7aK+ZT4ltrs0v/UomUgu1R0oDsoLejppl1kJLsqtz8q43R8SIq9fHjBet+3f7twX1n0DGR/WhjpmDQGhpmoI10kbwWqy1vMlhXvV1VtoUL5i3HNigwU86uD8u4ZfkUY6UntExrz9qL5Z2vtFrNVJA59jxK1TFk0i5FkokUGSrI441N96vqm8zb9Rwudlklj4nWte6R95aO39YAt9LlnOr8iA6WwckglulbTUY9GvHQ8KBSi5w4d9lY3vcN0Nu4qSps0f9giA6W5YBRwvyit4M8OvWh6R1/XNo1pXiLnH6czRKe0uu9uuk+bgRVVtMx/kiIDZb52+k26b58XRqIoPq1ZSKtwjarKm0xr7WbtmkeLRBioSMGsQJGBglnHuavQr4fu3VQOovP1yOQZYaqLc++H/aRamnc1Sv5Ng/RsbanZaFqEcaodaokY9vyjvn6RgSJYcfqU0pEb6XT5Sr/3KM2wwOgBcrXNhclnSpSaXlqyVAKXNdrZjjp5dLirrmiWVpKtc3+0kaQQZZGiW4EiA0W31indCRvrujDSdXFcLJH64LapcEpfLn4o8hUoMlDkS168YSGtQF6U9i2kBS/OpbBWoMhAhfV7FmcT8QoUGSjiBS/errBW4P8Dn+b/a0iISHAAAAAASUVORK5CYII=;" vertex="1" parent="1">
          <mxGeometry x="30" y="160" width="71.31" height="60" as="geometry" />
        </mxCell>
        <mxCell id="cFlkBL_1ttf7k6hPrmO4-4" value="Edge Services" style="text;html=1;strokeColor=none;fillColor=none;align=center;verticalAlign=middle;whiteSpace=wrap;rounded=0;" vertex="1" parent="1">
          <mxGeometry x="40" y="230" width="40" height="20" as="geometry" />
        </mxCell>
      </root>
    </mxGraphModel>
  </diagram>
</mxfile>
